<?xml version="1.0" encoding="utf-8"?>
<!-- Generator: Adobe Illustrator 16.0.0, SVG Export Plug-In . SVG Version: 6.00 Build 0)  -->
<!DOCTYPE svg PUBLIC "-//W3C//DTD SVG 1.1//EN" "http://www.w3.org/Graphics/SVG/1.1/DTD/svg11.dtd">
<svg version="1.1" xmlns="http://www.w3.org/2000/svg" xmlns:xlink="http://www.w3.org/1999/xlink" x="0px" y="0px"
	 width="595.28px" height="841.89px" viewBox="0 0 595.28 841.89" enable-background="new 0 0 595.28 841.89" xml:space="preserve">
<g id="Capa_1">
	<g>
		<path fill-rule="evenodd" clip-rule="evenodd" fill="#7C4B98" stroke="#676767" stroke-width="20" stroke-miterlimit="10" d="
			M297.402,116.986c-36.231-2.408-71.407,7.246-104.259,23.76C121.37,176.824,83.913,233.504,82.6,304.675
			c-1.16,62.905,31.616,115.003,89.356,153.188c7.829,5.176,12.994,11.144,16.51,18.674c18.106,38.763,36.172,77.541,54.124,116.359
			c14.27,30.856,28.239,61.823,42.65,92.627c2.206,4.718,3.621,11.429,10.916,11.755c8.665,0.389,9.734-7.246,12.337-12.257
			c5.325-10.246,9.666-20.886,14.499-31.331c27.622-59.702,55.245-119.4,82.95-179.07c3.293-7.091,8.951-12.153,16.012-17.018
			c69.069-47.578,100.464-109.96,85.457-186.682C490.191,182.887,395.96,114.377,297.402,116.986z"/>
		<path fill-rule="evenodd" clip-rule="evenodd" fill="#EA5975" stroke="#676767" stroke-width="20" stroke-miterlimit="10" d="
			M299.073,116.986c98.558-2.609,192.789,65.9,210.008,153.933c15.007,76.722-16.388,139.104-85.457,186.682
			c-7.061,4.864-12.719,9.927-16.012,17.018c-27.705,59.67-55.328,119.368-82.95,179.07c-4.833,10.445-9.174,21.085-14.499,31.331
			c-2.603,5.011-3.672,12.646-12.337,12.257c-7.295-0.326-8.71-7.037-10.916-11.755c-14.411-30.804-28.38-61.771-42.65-92.627
			c-17.952-38.818-36.018-77.597-54.124-116.359c-3.516-7.53-8.681-13.498-16.51-18.674c-57.74-38.184-90.516-90.283-89.356-153.188
			c1.313-71.17,38.771-127.851,110.544-163.929C227.666,124.232,262.842,114.579,299.073,116.986z"/>
	</g>
	<rect x="3.005" y="-2.667" fill-rule="evenodd" clip-rule="evenodd" fill="none" width="595.28" height="841.889"/>
	<g>
		<path fill-rule="evenodd" clip-rule="evenodd" fill="#C3C3C3" stroke="#545454" stroke-width="9" stroke-miterlimit="10" d="
			M412.789,199.493c2.676,0.973,4.055,3.011,5.039,5.602c5.891,15.523,9.564,31.47,8.336,48.159
			c-1.344,18.212-9.934,32.053-26.148,40.826c-6.834,3.696-14.133,5.844-21.963,6.035c-0.793,0.019-1.818,0.441-2.314,1.031
			c-10.721,12.713-21.381,25.478-32.455,38.713c3.418,3.29,6.906,6.542,10.281,9.909c20.773,20.733,41.527,41.486,62.271,62.246
			c3.527,3.53,3.537,6.747,0.074,10.277c-3.418,3.483-6.879,6.923-10.283,10.343c-52.596-52.639-105.047-105.131-157.318-157.446
			c-3.081,3.011-5.857,5.722-8.709,8.51c52.457,52.448,104.922,104.905,157.442,157.415c-3.984,4.004-7.688,7.803-11.498,11.49
			c-0.838,0.813-2.061,1.225-3.109,1.822c-0.662,0-1.326,0-1.99,0c-1.664-1.145-3.553-2.065-4.961-3.469
			c-24.617-24.538-49.176-49.134-73.734-73.73c-0.701-0.701-1.262-1.542-1.993-2.449c-2.761,2.514-5.173,4.754-7.632,6.942
			c-10.021,8.918-19.89,18.02-30.135,26.674c-9.912,8.372-20.075,16.464-30.396,24.329c-8.128,6.191-16.582,12.004-26.261,15.634
			c-3.512,1.317-7.119,1.724-10.287-0.964c-3.382-2.867-3.384-6.625-2.292-10.449c2.048-7.178,6.205-13.291,10.384-19.313
			c10.384-14.959,21.701-29.206,33.743-42.861c9.421-10.683,18.99-21.236,28.49-31.85c0.268-0.3,0.498-0.634,0.853-1.091
			c-0.627-0.673-1.215-1.342-1.843-1.971c-12.957-12.971-25.809-26.047-38.936-38.843c-4.528-4.413-7.947-9.319-10.574-15.039
			c-7.806-16.996-15.859-33.878-23.815-50.805c-1.931-4.107-0.435-8.225,3.686-9.008c1.743-0.331,3.891,0.377,5.605,1.16
			c9.437,4.309,18.797,8.788,28.183,13.207c9.384,4.417,18.786,8.797,28.132,13.29c1.452,0.698,2.8,1.768,3.951,2.913
			c13.047,12.984,26.048,26.013,39.048,39.042c0.64,0.641,1.162,1.398,1.86,2.25c5.536-4.64,10.79-9.037,16.038-13.442
			c6.975-5.854,13.922-11.742,20.934-17.552c1.436-1.189,2.164-2.405,2.205-4.385c0.211-9.985,2.666-19.397,9.252-27.083
			c6.773-7.904,15.229-12.072,26.133-10.122c4.82,0.862,9.834,0.948,14.752,0.869c4.309-0.069,7.619-2.726,9.42-6.4
			c2.109-4.307,3.752-8.92,4.961-13.565c0.826-3.174,1.832-5.713,5.092-6.847C411.131,199.493,411.961,199.493,412.789,199.493z
			 M364.498,296.055c-6.557-6.605-12.824-12.918-19.15-19.29c-11.607,9.757-23.336,19.617-34.709,29.176
			c8.328,8.338,16.489,16.509,24.732,24.765C345.035,319.211,354.865,307.516,364.498,296.055z"/>
	</g>
	
		<path fill-rule="evenodd" clip-rule="evenodd" fill="#676767" stroke="#676767" stroke-width="12" stroke-linecap="round" stroke-linejoin="round" stroke-miterlimit="10" d="
		M206.971,258.667c0,0,24.572-7.855,19.029-14.667s-35.038-16.504-35.038-16.504L206.971,258.667z"/>
	
		<path fill-rule="evenodd" clip-rule="evenodd" fill="#676767" stroke="#676767" stroke-width="2" stroke-linecap="round" stroke-linejoin="round" stroke-miterlimit="10" d="
		M344.334,268.667c0,0,28.771,36.229,33.719,31.448s70.947-15.448,33.614-95.448c0,0-10,27.658-36,22.829
		S340.72,264.233,344.334,268.667z"/>
</g>
<g id="Capa_5">
</g>
</svg>
