<?xml version="1.0" encoding="utf-8"?>
<!-- Generator: Adobe Illustrator 16.0.0, SVG Export Plug-In . SVG Version: 6.00 Build 0)  -->
<!DOCTYPE svg PUBLIC "-//W3C//DTD SVG 1.1//EN" "http://www.w3.org/Graphics/SVG/1.1/DTD/svg11.dtd">
<svg version="1.1" xmlns="http://www.w3.org/2000/svg" xmlns:xlink="http://www.w3.org/1999/xlink" x="0px" y="0px"
	 width="595.28px" height="841.89px" viewBox="0 0 595.28 841.89" enable-background="new 0 0 595.28 841.89" xml:space="preserve">
<g id="Capa_1">
	<g>
		<path fill-rule="evenodd" clip-rule="evenodd" fill="#4E4A99" stroke="#676767" stroke-width="20" stroke-miterlimit="10" d="
			M297.402,116.986c-36.231-2.408-71.407,7.246-104.259,23.76C121.37,176.824,83.913,233.504,82.6,304.675
			c-1.16,62.905,31.616,115.003,89.356,153.188c7.829,5.176,12.994,11.144,16.51,18.674c18.106,38.763,36.172,77.541,54.124,116.359
			c14.27,30.856,28.239,61.823,42.65,92.627c2.206,4.718,3.621,11.429,10.916,11.755c8.665,0.389,9.734-7.246,12.337-12.257
			c5.325-10.246,9.666-20.886,14.499-31.331c27.622-59.702,55.245-119.4,82.95-179.07c3.293-7.091,8.951-12.153,16.012-17.018
			c69.069-47.578,100.464-109.96,85.457-186.682C490.191,182.887,395.96,114.377,297.402,116.986z"/>
		<path fill-rule="evenodd" clip-rule="evenodd" fill="#4E4A99" stroke="#676767" stroke-width="20" stroke-miterlimit="10" d="
			M297.402,116.986c98.558-2.609,192.789,65.9,210.008,153.933c15.007,76.722-16.388,139.104-85.457,186.682
			c-7.061,4.864-12.719,9.927-16.012,17.018c-27.705,59.67-55.328,119.368-82.95,179.07c-4.833,10.445-9.174,21.085-14.499,31.331
			c-2.603,5.011-3.672,12.646-12.337,12.257c-7.295-0.326-8.71-7.037-10.916-11.755c-14.411-30.804-28.38-61.771-42.65-92.627
			c-17.952-38.818-36.018-77.597-54.124-116.359c-3.516-7.53-8.681-13.498-16.51-18.674C114.215,419.678,81.44,367.58,82.6,304.675
			c1.313-71.17,38.771-127.851,110.544-163.929C225.995,124.232,261.171,114.579,297.402,116.986z"/>
	</g>
	<rect fill-rule="evenodd" clip-rule="evenodd" fill="none" width="595.28" height="841.89"/>
</g>
<g id="Capa_2">
	<g>
		<path fill-rule="evenodd" clip-rule="evenodd" fill="#C3C3C3" d="M315.434,526.501c-13.115-5.217-15.371-9.139-16.304-29.035
			c-1.54,0-3.124,0.024-4.708-0.004c-55.629-0.996-98.728-45.449-98.032-101.023c0.148-11.821,0.021-23.646,0.021-35.028
			c-2.925-1.972-5.772-3.435-8.055-5.517c-6.897-6.291-6.054-13.853,1.628-19.136c9.046-6.221,18.25-12.286,26.747-19.202
			c4.641-3.777,8.83-8.697,11.714-13.933c7.529-13.667,14.311-27.75,21.212-41.755c2.646-5.369,6.704-8.079,12.605-8.083
			c21.819-0.016,43.639-0.027,65.458,0.01c6.046,0.01,10.27,2.709,13.031,8.3c7.431,15.042,14.603,30.259,23.004,44.753
			c3.432,5.92,9.403,10.606,14.876,15.044c6.833,5.541,14.309,10.296,21.574,15.291c4.009,2.755,7.609,5.914,7.076,11.198
			c-0.564,5.6-4.313,9.578-9.209,11.559c-3.503,1.418-4.372,3.27-4.363,6.585c0.029,11.653,0.18,23.316-0.213,34.959
			c-1.209,35.886-17.643,63.032-47.956,81.872c-3.059,1.9-4.613,3.646-4.288,7.352c0.334,3.798-0.169,7.66-0.023,11.484
			c0.471,12.34-4.635,20.739-16.797,24.309C321.434,526.501,318.434,526.501,315.434,526.501z M299.237,485.833
			c0-15.216,0-29.026,0-42.836c0-13.771,0-27.54,0-41.468c-2.826,0-5.271,0-7.93,0c-0.156,1.288-0.416,2.415-0.409,3.539
			c0.077,12.806,0.166,25.613,0.312,38.418c0.099,8.713-1.562,16.782-9.548,21.735c-7.209,4.472-14.951,4.391-22.358,0.402
			c-7.137-3.844-9.957-10.287-9.944-18.252c0.05-30.468,0.02-60.935,0.02-91.402c0-8.535,0-17.07,0-25.049
			c-7.682,5.345-15.054,10.624-22.587,15.662c-4.969,3.324-10.224,6.219-15.228,9.494c-1.221,0.8-2.813,2.357-2.79,3.536
			c0.369,18.1-0.606,36.415,1.866,54.245c4.821,34.759,31.877,62.179,66.32,69.461C284.016,484.81,291.348,484.979,299.237,485.833z
			 M341.398,471.204c22.598-13.291,39.624-42.066,40.012-67.317c0.217-14.139,0.123-28.285-0.102-42.423
			c-0.027-1.743-1.287-4.107-2.724-5.086c-12.352-8.419-26.386-14.36-37.187-26.13C341.398,377.606,341.398,424.121,341.398,471.204
			z"/>
		<path fill-rule="evenodd" clip-rule="evenodd" fill="#C3C3C3" d="M299.783,176c8.223,1.495,15.35,4.906,21.277,11.028
			c17.08,17.639,10.244,48.104-12.844,56.683c-19.932,7.407-40.38-2.829-46.389-23.22c-5.73-19.445,6.441-39.317,26.848-43.86
			c0.505-0.113,0.967-0.417,1.45-0.631C293.345,176,296.564,176,299.783,176z"/>
	</g>
</g>
</svg>
