<?xml version="1.0" encoding="utf-8"?>
<!-- Generator: Adobe Illustrator 16.0.0, SVG Export Plug-In . SVG Version: 6.00 Build 0)  -->
<!DOCTYPE svg PUBLIC "-//W3C//DTD SVG 1.1//EN" "http://www.w3.org/Graphics/SVG/1.1/DTD/svg11.dtd">
<svg version="1.1" xmlns="http://www.w3.org/2000/svg" xmlns:xlink="http://www.w3.org/1999/xlink" x="0px" y="0px"
	 width="595.28px" height="841.89px" viewBox="0 0 595.28 841.89" enable-background="new 0 0 595.28 841.89" xml:space="preserve">
<g id="Capa_1">
	<g>
		<path fill-rule="evenodd" clip-rule="evenodd" fill="#6B6A73" stroke="#676767" stroke-width="20" stroke-miterlimit="10" d="
			M297.402,116.986c-36.231-2.408-71.407,7.246-104.259,23.76C121.37,176.824,83.913,233.504,82.6,304.675
			c-1.16,62.905,31.616,115.003,89.356,153.188c7.829,5.176,12.994,11.144,16.51,18.674c18.106,38.763,36.172,77.541,54.124,116.359
			c14.27,30.856,28.239,61.823,42.65,92.627c2.206,4.718,3.621,11.429,10.916,11.755c8.665,0.389,9.734-7.246,12.337-12.257
			c5.325-10.246,9.666-20.886,14.499-31.331c27.622-59.702,55.245-119.4,82.95-179.07c3.293-7.091,8.951-12.153,16.012-17.018
			c69.069-47.578,100.464-109.96,85.457-186.682C490.191,182.887,395.96,114.377,297.402,116.986z"/>
		<path fill-rule="evenodd" clip-rule="evenodd" fill="#6B6A73" stroke="#676767" stroke-width="20" stroke-miterlimit="10" d="
			M297.402,116.986c98.558-2.609,192.789,65.9,210.008,153.933c15.007,76.722-16.388,139.104-85.457,186.682
			c-7.061,4.864-12.719,9.927-16.012,17.018c-27.705,59.67-55.328,119.368-82.95,179.07c-4.833,10.445-9.174,21.085-14.499,31.331
			c-2.603,5.011-3.672,12.646-12.337,12.257c-7.295-0.326-8.71-7.037-10.916-11.755c-14.411-30.804-28.38-61.771-42.65-92.627
			c-17.952-38.818-36.018-77.597-54.124-116.359c-3.516-7.53-8.681-13.498-16.51-18.674C114.215,419.678,81.44,367.58,82.6,304.675
			c1.313-71.17,38.771-127.851,110.544-163.929C225.995,124.232,261.171,114.579,297.402,116.986z"/>
	</g>
	<rect fill-rule="evenodd" clip-rule="evenodd" fill="none" width="595.28" height="841.89"/>
</g>
<g id="Capa_3">
	<g>
		<path fill-rule="evenodd" clip-rule="evenodd" fill="#202020" d="M121.521,395.942c21.536,0.82,42.872,0.324,63.39-7.645
			c31.437-12.211,50.429-36.599,62.977-66.24c11.875-28.049,21.621-56.993,32.707-85.386c7.423-19.008,16.67-37.009,30.44-52.484
			c19.483-21.897,44.214-32.298,72.89-34.187c9.608-0.632,19.291-0.145,28.94-0.17c6.634,6.293,13.269,12.589,19.903,18.882
			c-7.135,0.947-14.322,1.596-21.392,2.892c-35.724,6.546-58.158,28.625-71.527,61.36c-11.452,28.045-15.405,57.843-21.267,87.255
			c-5.646,28.32-10.58,57.063-19.635,84.356c-15.494,46.7-46.222,67.472-95.478,69.118
			C176.153,447.776,148.837,421.859,121.521,395.942z M166.221,432.242c6.769,8.614,17.442,9.996,30.294,4.621
			C187.995,424.438,176.199,434.777,166.221,432.242z M229.986,426.16c-7.233-8.09-9.838-7.881-24.568,1.467
			C212.279,436.073,213.834,435.994,229.986,426.16z M255.462,389.482c1.863,1.768,3.332,3.262,4.922,4.613
			c0.525,0.445,1.366,0.519,2.004,0.74c10.532-13.702,10.795-15.793,2.439-20.876C261.855,378.886,258.882,383.813,255.462,389.482z
			 M241.646,418.916c4.307-4.539,8.241-8.686,12.565-13.243c-2.53-2.144-4.632-3.928-6.873-5.826
			c-4.543,4.348-8.512,8.148-12.838,12.289C236.87,414.384,239.051,416.454,241.646,418.916z M276.411,366.095
			c7.813-12.622,8.216-18.06,1.698-22.926C269.728,358.887,269.564,361.086,276.411,366.095z M288.217,309.281
			c-7.171,15.934-7.258,19.896,0.3,24.417C287.75,325.348,297.125,317.875,288.217,309.281z M296.839,275.425
			c-0.333,7.614-9.311,15.068-0.572,22.562C296.31,290.375,304.649,283.044,296.839,275.425z M304.572,264.03
			c0.969-7.266,8.883-13.906,2.896-21.742C305.476,249.466,297.697,255.943,304.572,264.03z M314.91,230.888
			c3.036-5.934,9.768-10.824,6.197-18.435C317.614,218.241,311.424,223.171,314.91,230.888z M342.584,189.26
			c-0.658-0.744-1.316-1.487-1.974-2.232c-6.065,0.792-7.87,6.907-11.216,10.945c-0.743,0.896,0.022,3.042,0.094,4.612
			c0.651,0.136,1.302,0.272,1.954,0.409C335.156,198.416,338.87,193.838,342.584,189.26z M349.512,177.07
			c0.58,1.226,1.158,2.453,1.738,3.68c5.702-3.237,11.404-6.475,17.105-9.712c-0.497-1-0.995-2-1.492-3.001
			C361.08,171.048,355.296,174.059,349.512,177.07z M402.999,161.617c-0.15-0.79-0.301-1.579-0.451-2.369
			c-7.462,1.286-14.925,2.573-22.388,3.858c0.16,0.915,0.32,1.83,0.48,2.745C388.094,164.439,395.546,163.028,402.999,161.617z"/>
		<path fill-rule="evenodd" clip-rule="evenodd" fill="#FFFFFF" d="M166.221,432.242c9.978,2.535,21.774-7.805,30.294,4.621
			C183.663,442.238,172.99,440.856,166.221,432.242z"/>
		<path fill-rule="evenodd" clip-rule="evenodd" fill="#FFFFFF" d="M229.986,426.16c-16.152,9.834-17.707,9.913-24.568,1.467
			C220.147,418.279,222.753,418.07,229.986,426.16z"/>
		<path fill-rule="evenodd" clip-rule="evenodd" fill="#FFFFFF" d="M255.462,389.482c3.419-5.668,6.393-10.596,9.365-15.523
			c8.356,5.083,8.093,7.174-2.439,20.876c-0.638-0.222-1.479-0.295-2.004-0.74C258.794,392.744,257.325,391.25,255.462,389.482z"/>
		<path fill-rule="evenodd" clip-rule="evenodd" fill="#FFFFFF" d="M241.646,418.916c-2.595-2.462-4.775-4.531-7.146-6.78
			c4.326-4.141,8.294-7.941,12.838-12.289c2.24,1.897,4.342,3.682,6.873,5.826C249.886,410.229,245.952,414.376,241.646,418.916z"/>
		<path fill-rule="evenodd" clip-rule="evenodd" fill="#FFFFFF" d="M276.411,366.095c-6.847-5.009-6.684-7.208,1.698-22.926
			C284.627,348.035,284.224,353.473,276.411,366.095z"/>
		<path fill-rule="evenodd" clip-rule="evenodd" fill="#FFFFFF" d="M288.217,309.281c8.907,8.594-0.467,16.067,0.3,24.417
			C280.959,329.177,281.046,325.215,288.217,309.281z"/>
		<path fill-rule="evenodd" clip-rule="evenodd" fill="#FFFFFF" d="M296.839,275.425c7.811,7.62-0.529,14.951-0.572,22.562
			C287.528,290.493,296.505,283.039,296.839,275.425z"/>
		<path fill-rule="evenodd" clip-rule="evenodd" fill="#FFFFFF" d="M304.572,264.03c-6.875-8.087,0.903-14.564,2.896-21.742
			C313.455,250.124,305.541,256.764,304.572,264.03z"/>
		<path fill-rule="evenodd" clip-rule="evenodd" fill="#FFFFFF" d="M314.91,230.888c-3.486-7.717,2.704-12.647,6.197-18.435
			C324.678,220.064,317.946,224.954,314.91,230.888z"/>
		<path fill-rule="evenodd" clip-rule="evenodd" fill="#FFFFFF" d="M342.584,189.26c-3.714,4.578-7.428,9.156-11.142,13.734
			c-0.652-0.137-1.303-0.273-1.954-0.409c-0.071-1.57-0.837-3.715-0.094-4.612c3.346-4.038,5.15-10.153,11.216-10.945
			C341.268,187.773,341.926,188.517,342.584,189.26z"/>
		<path fill-rule="evenodd" clip-rule="evenodd" fill="#FFFFFF" d="M349.512,177.07c5.784-3.011,11.568-6.022,17.352-9.033
			c0.497,1.001,0.995,2,1.492,3.001c-5.701,3.237-11.403,6.475-17.105,9.712C350.67,179.523,350.092,178.296,349.512,177.07z"/>
		<path fill-rule="evenodd" clip-rule="evenodd" fill="#FFFFFF" d="M402.999,161.617c-7.453,1.411-14.905,2.822-22.358,4.234
			c-0.16-0.915-0.32-1.83-0.48-2.745c7.463-1.286,14.926-2.572,22.388-3.858C402.698,160.038,402.849,160.828,402.999,161.617z"/>
	</g>
</g>
</svg>
