<?xml version="1.0" encoding="UTF-8" standalone="no"?>
<svg
   xmlns:dc="http://purl.org/dc/elements/1.1/"
   xmlns:cc="http://creativecommons.org/ns#"
   xmlns:rdf="http://www.w3.org/1999/02/22-rdf-syntax-ns#"
   xmlns:svg="http://www.w3.org/2000/svg"
   xmlns="http://www.w3.org/2000/svg"
   id="svg3869"
   version="1.1"
   viewBox="0 0 179.34773 57.070061"
   height="57.070061mm"
   width="179.34773mm">
  <defs
     id="defs3863" />
  <metadata
     id="metadata3866">
    <rdf:RDF>
      <cc:Work
         rdf:about="">
        <dc:format>image/svg+xml</dc:format>
        <dc:type
           rdf:resource="http://purl.org/dc/dcmitype/StillImage" />
        <dc:title></dc:title>
      </cc:Work>
    </rdf:RDF>
  </metadata>
  <g
     transform="translate(-9.2763528,-100.82043)"
     id="layer1">
    <g
       id="text166-9-2-4"
       style="font-style:normal;font-variant:normal;font-weight:normal;font-stretch:normal;font-size:49.3185997px;line-height:125%;font-family:CabinSketch;-inkscape-font-specification:'CabinSketch, Normal';font-variant-ligatures:normal;font-variant-caps:normal;font-variant-numeric:normal;font-feature-settings:normal;text-align:start;letter-spacing:0px;word-spacing:0px;writing-mode:lr-tb;text-anchor:start;fill:#cccccc;fill-opacity:1;stroke:none;stroke-width:3.94547391px;stroke-linecap:butt;stroke-linejoin:miter;stroke-opacity:1"
       transform="scale(1.0312817,0.96966717)"
       aria-label="Cultural">
      <path
         id="path3887"
         style="font-style:normal;font-variant:normal;font-weight:normal;font-stretch:normal;font-size:49.3185997px;font-family:CabinSketch;-inkscape-font-specification:'CabinSketch, Normal';font-variant-ligatures:normal;font-variant-caps:normal;font-variant-numeric:normal;font-feature-settings:normal;text-align:start;writing-mode:lr-tb;text-anchor:start;fill:#cccccc;fill-opacity:1;stroke-width:3.94547391px"
         d="m 10.934309,145.87281 q 0,-7.74302 4.833223,-13.31602 4.833222,-5.62232 12.378968,-5.62232 1.282284,0 1.77547,0.0493 0.493186,0 1.824788,0.0986 1.331602,0.0986 1.972744,0.39455 0.641142,0.2466 1.479558,0.73978 0.887735,0.49319 1.232965,1.3316 0.394549,0.83842 0.394549,1.97275 0,0.34523 -0.197275,0.78909 -0.197274,0.44387 -0.542504,0.44387 -0.838416,0 -3.008435,-0.73978 -2.170018,-0.78909 -3.402983,-0.78909 -2.81116,0 -6.855286,1.52887 -6.411418,2.3673 -6.411418,13.41466 0,0.0986 0,0.64114 0.04932,0.49319 0.04932,0.59183 0.295912,0.0986 0.443867,0.78909 0.197275,0.69046 0.246593,1.52888 0.09864,0.7891 0.197275,0.98637 2.367293,5.47437 12.67488,5.47437 1.331602,0 3.402983,-0.88774 2.1207,-0.93705 2.515249,-0.93705 0.887735,0 0.887735,1.18365 0,1.43023 -0.295912,2.61388 -0.246593,1.13433 -0.641142,1.13433 -0.197274,0 -0.542504,-0.0493 h -0.34523 q -5.227772,0.93705 -8.236207,0.93705 -0.197274,0 -0.591823,-0.0493 -0.394549,0 -0.591823,0 -0.147956,0.24659 -0.789098,0.44386 -0.591823,0.19728 -1.03569,0.19728 -5.227772,-0.39455 -9.025304,-4.98118 -3.797532,-4.58663 -3.797532,-9.91304 z m 11.589871,11.54055 q -0.04932,0.59183 1.923425,0.88774 2.022063,0.29591 3.255028,0.29591 1.972744,0 4.192081,-0.29591 2.268655,-0.34523 3.107072,-0.88774 v -0.93705 q -4.093444,1.28228 -6.066188,1.28228 -0.591823,0 -2.81116,-0.34523 -0.690461,-0.14795 -4.635949,-1.28228 -3.896169,-1.18365 -4.142762,-1.18365 l 0.591823,-0.5425 q -0.147956,-0.34523 -0.34523,-0.34523 -0.09864,0 -0.295912,0.0493 -0.197274,0.0493 -0.295911,0.0493 0,-0.59182 -0.04932,-0.78909 0,-0.2466 -0.295912,-0.54251 -0.246593,-0.29591 -0.838416,-0.29591 0.443868,-0.24659 0.641142,-0.88773 -0.838416,0 -0.838416,-1.08501 h -0.986372 q 0.197274,-0.14796 0.493186,-0.2466 0.34523,-0.14795 0.493186,-0.24659 0.197274,-0.14795 0.197274,-0.29591 0,-0.59182 -0.295911,-1.18365 -0.493186,0.0986 -1.183647,0.69046 -0.641142,0.54251 -0.641142,0.98638 0,0.14795 0.295912,1.085 0.34523,0.93706 0.394549,0.93706 0.34523,0 0.887735,-0.39455 -0.345231,0.24659 -0.345231,0.64114 0,0.73978 0.197275,1.38092 0.246593,0.59182 0.69046,1.08501 0.493186,0.49319 0.887735,0.83842 0.443867,0.29591 1.232965,0.64114 0.789098,0.34523 1.183646,0.49318 0.443868,0.14796 1.331603,0.44387 0.887734,0.2466 1.134327,0.34523 h 0.04932 q 0.09864,0 0.887735,-0.34523 z m -9.715764,-9.12394 q 0,0.29591 0.09864,0.7891 0.147956,0.44387 0.197274,0.44387 h 0.591823 l 1.578196,-1.52888 v -0.34523 q -2.46593,0 -2.46593,0.64114 z m 1.972744,-2.46593 q -0.443868,0 -1.035691,0.54251 -0.591823,0.49318 -0.641142,1.03569 0.739779,0 1.085009,-0.0493 0.345231,-0.0493 0.690461,-0.29591 0.394549,-0.29592 0.394549,-0.88774 0,-0.0986 -0.246593,-0.19727 -0.197275,-0.14796 -0.246593,-0.14796 z m -2.416612,-0.83841 v 0.29591 q 0,1.23296 0.641142,1.23296 0.591823,0 1.923425,-1.52887 z m 3.008435,-3.20571 q -1.380921,0 -2.022063,0.39454 -0.591823,0.34524 -0.591823,1.5782 v 0.24659 q 0.04932,0.2466 0.04932,0.29591 2.564567,-1.57819 2.564567,-2.51524 z m -0.09864,1.28228 q -1.331603,0.5425 -1.923426,1.23296 0.09864,0 0.394549,0.0493 0.295912,0 0.443867,0 1.134328,0 1.134328,-0.78909 0,-0.39455 -0.04932,-0.49319 z m 0,-3.30435 q -0.690461,0 -1.923426,1.52888 0.04932,0 0.197275,0 0.641141,0 0.986372,-0.0493 0.34523,-0.0493 0.641141,-0.29591 0.345231,-0.29591 0.345231,-0.88773 0,-0.0493 -0.09864,-0.14796 -0.09864,-0.14796 -0.147955,-0.14796 z m 0,-0.88773 H 13.69615 q -0.34523,0 -0.34523,1.08501 v 0.39455 l 1.923426,-1.18365 z m 1.183646,-2.1207 q -0.591823,0.14795 -1.528877,1.18365 0.09864,0.0986 0.443868,0.0986 0.493186,0 0.789097,-0.29591 0.345231,-0.34523 0.345231,-0.83842 0,-0.0493 0,-0.0493 z m -0.147956,-1.03569 q -0.542504,0 -1.134328,0.39455 -0.591823,0.34523 -0.591823,0.78909 0,0.0493 0.04932,0.14796 0.04932,-0.0493 0.34523,-0.14796 0.295912,-0.14795 0.443867,-0.24659 0.197275,-0.0986 0.394549,-0.24659 0.246593,-0.14796 0.34523,-0.29591 0.147956,-0.19728 0.147956,-0.39455 z m -0.789097,-0.83842 v 0.69046 q 0.641141,-0.44386 1.38092,-0.69046 0.789098,-0.29591 1.035691,-0.44387 0.246593,-0.14795 0.443867,-0.73977 0.197275,-0.59183 0.197275,-1.82479 z m 5.27709,-4.34003 q -0.591823,0 -0.986372,0.39454 -0.394549,0.39455 -0.394549,1.03569 0.493186,0 0.937053,-0.44386 0.443868,-0.49319 0.443868,-0.98637 z m 0.789097,0.0986 -0.838416,1.23297 q 0.887735,-0.88774 0.887735,-1.08501 0,-0.0493 0,-0.0493 z m 3.846851,-0.93705 q -0.69046,0 -1.972744,1.52888 1.085009,-0.0493 2.1207,-1.52888 z m 9.271897,1.08501 q 0,0.49318 0.641142,0.49318 v -1.57819 q -0.641142,0.39455 -0.641142,1.08501 z m -12.181694,-0.7891 0.295911,0.64114 q 2.416612,-1.72615 2.416612,-1.82479 h -0.542505 q -0.394549,0 -1.282283,0.54251 -0.887735,0.49318 -0.887735,0.64114 z m 10.89941,-0.5425 q -0.295911,0.49318 -0.295911,1.03569 0.443867,0 0.838416,-0.29591 0.443867,-0.29592 0.443867,-0.73978 0,-0.44387 -0.34523,-0.69046 -0.295911,-0.29592 -0.739779,-0.29592 -0.147956,0 -0.34523,0.39455 -0.147956,0.34523 -0.147956,0.59183 z m -5.720957,-0.39455 q -0.443868,0 -0.937054,0.93705 l 0.147956,0.0493 q 0.147956,0 0.197275,0 0.542504,0 0.937053,-0.93705 l -0.147956,-0.0493 q -0.147956,0 -0.197274,0 z m 4.734585,-0.29591 q -0.443867,0 -0.838416,0.59182 -0.34523,0.5425 -0.34523,0.93705 0.542505,0 0.887735,-0.44387 0.34523,-0.44386 0.443867,-1.03569 z m -2.317974,-0.2466 -1.183646,1.18365 q 0.246593,0.0493 0.295911,0.0493 0.394549,0 0.641142,-0.39455 0.246593,-0.39455 0.246593,-0.83842 z m -4.290718,0 q 0,0.39455 0.69046,0.93706 l 0.887735,-0.93706 z m 6.016869,-0.0986 q -0.295911,0 -0.591823,0.24659 -0.246593,0.19727 -0.394549,0.39455 -0.147956,0.14795 -0.147956,0.0986 1.134328,0 1.134328,-0.73977 z m -3.205709,0.0986 v 0.34523 q 0.394549,0 0.591823,-0.34523 z" />
      <path
         id="path3889"
         style="font-style:normal;font-variant:normal;font-weight:normal;font-stretch:normal;font-size:49.3185997px;font-family:CabinSketch;-inkscape-font-specification:'CabinSketch, Normal';font-variant-ligatures:normal;font-variant-caps:normal;font-variant-numeric:normal;font-feature-settings:normal;text-align:start;writing-mode:lr-tb;text-anchor:start;fill:#cccccc;fill-opacity:1;stroke-width:3.94547391px"
         d="m 55.341084,156.82154 q -0.04932,0 -0.937054,1.03569 -0.838416,0.98637 -2.317974,1.57819 -1.479558,0.59183 -4.044125,0.59183 -3.600258,0 -5.523683,-3.00844 -1.923426,-3.05775 -2.219337,-7.29915 0,-0.14796 -0.147956,-1.82479 -0.147956,-1.67683 -0.197274,-1.82479 v -0.64114 q 0.591823,-2.95911 0.591823,-3.30434 0,-0.19728 -0.147956,-1.67684 -0.09864,-1.52887 -0.09864,-1.67683 v -0.49318 q 0,-0.73978 0.246593,-1.47956 0.295911,-0.7891 0.937053,-0.7891 l 3.057753,0.34523 q 0.690461,0 0.690461,2.95912 0,1.08501 -0.09864,2.17001 l 0.295912,0.29592 q 0,1.13432 -0.04932,3.00843 0,1.87411 0,2.61389 0,4.38935 1.035691,6.1155 1.085009,1.72615 4.537311,1.72615 1.874107,0 3.008435,-0.34523 1.134328,-0.34523 1.824788,-1.52887 0,-0.29591 0,-0.88774 0.04932,-0.59182 0.04932,-0.88773 0,-1.77547 -0.246593,-5.32641 -0.197275,-3.55094 -0.197275,-5.37573 0,-3.25503 0.09864,-3.35366 l 0.542505,-0.29592 h 3.402983 q 0.246593,0 0.739779,9.17326 0.493186,9.12395 0.493186,12.13238 -0.394548,1.38092 -3.649576,1.38092 -1.035691,0 -1.380921,-0.34523 -0.34523,-0.34523 -0.34523,-1.3316 0,-0.34523 0,-0.83842 0.04932,-0.49318 0.04932,-0.59182 z m -9.271897,1.13433 q 0.789097,0.59182 2.613886,0.59182 1.134327,0 1.627513,-0.59182 v 0.69046 q 1.43024,0 2.071382,-0.29591 0.69046,-0.29592 1.282283,-1.33161 l 0.34523,0.29592 0.887735,-0.88774 q -0.09864,0 -0.34523,0 -0.246593,-0.0493 -0.295912,-0.0493 -0.937053,0 -1.528876,0.34523 h -4.537311 q -0.197275,0 -1.035691,0.49319 -0.789098,0.49318 -1.085009,0.73978 z m 10.702136,0.34523 0.443867,0.44386 1.627514,-0.5425 v -0.24659 z m -12.872155,-1.28229 q 1.183647,0.34523 1.528877,0.59183 l 1.824788,-0.88774 v -0.29591 H 46.66101 v -0.64114 h -2.761842 v -0.34523 l 0.246593,0.0493 q 0.197275,0 0.394549,0 1.183647,0 1.183647,-0.59183 0,-0.49318 -0.295912,-0.64114 l -0.887735,0.64114 q 0,-0.29591 0.147956,-0.73978 0.147956,-0.44386 0.147956,-0.78909 -0.147956,0.0986 -0.838416,0.24659 -0.641142,0.14796 -1.134328,0.39455 -0.493186,0.19727 -0.493186,0.59182 l 0.04932,0.29591 z m 14.844899,-1.28228 q -0.542505,0 -1.134328,0.5425 -0.542504,0.54251 -0.591823,1.0357 l 0.295912,0.0493 q 0.295911,0 0.542504,0 1.282284,0 1.282284,-0.73978 0,-0.88773 -0.394549,-0.88773 z m -2.712523,0.44387 q 0,0.19727 0.34523,0.5425 l 1.824788,-1.23296 v -0.7891 q 0.147956,0 0.394549,0.0986 0.246593,0.0986 0.295912,0.0986 0.246593,0 0.246593,-0.64114 0,-0.14795 -0.197275,-0.5425 -0.147955,-0.39455 -0.197274,-0.39455 -0.246593,0 -0.542505,0.19727 -0.246593,0.19728 -0.443867,0.34523 l -0.147956,0.14796 q 0,0.49318 0.34523,0.59182 -0.443867,0.69046 -1.085009,1.13433 -0.591823,0.44387 -0.838416,0.44387 z m -14.253075,-4.38936 q 0,0.0493 0,0.19728 0,0.14795 0,0.24659 0,0.0493 0,0.19727 0,0.14796 0,0.2466 0.04932,0.0493 0.04932,0.19727 0.04932,0.0986 0.09864,0.19728 0.04932,0.0493 0.09864,0.14795 0.04932,0.0493 0.147956,0.0986 0.09864,0.0493 0.197274,0.0986 0.09864,0 0.246593,0 0.789097,0 1.479558,-0.29592 0.739779,-0.34523 0.739779,-0.98637 0,-0.59182 -0.591823,-0.59182 -0.147956,0.0493 -0.591824,0.59182 -0.443867,0.54251 -0.641141,0.93706 l -0.591823,-0.29592 q 1.03569,-1.18364 1.183646,-1.82478 -0.197275,0 -0.690461,0.0493 -0.443867,0 -0.641141,0.0493 -0.147956,0 -0.34523,0.19728 -0.147956,0.19727 -0.147956,0.5425 z m 15.48604,0.7891 q 0,0.69046 0.34523,0.7891 0.937054,-0.93706 0.937054,-1.03569 0,-0.14796 -0.345231,-0.29592 -0.34523,-0.19727 -0.591823,-0.19727 -0.34523,0 -0.34523,0.73978 z m 1.676832,-2.6632 q -0.493186,0 -0.937053,0.44386 -0.443867,0.39455 -0.443867,0.93706 0.887734,0 1.134327,-0.19728 0.246593,-0.24659 0.246593,-1.18364 z m -14.696942,-2.61389 q -1.282284,1.08501 -2.761842,3.00843 h 2.761842 q 0.04932,0 0.147955,-0.34523 0.147956,-0.34523 0.147956,-0.5425 0,-0.34523 -0.147956,-1.03569 -0.147955,-0.69046 -0.147955,-1.08501 z m 13.71057,0.5425 q -0.986372,0 -0.986372,2.26866 0.739779,0 1.232965,-0.59182 0.542505,-0.59183 0.542505,-1.33161 h -0.542505 q 0.493186,-0.39454 0.493186,-2.71252 -0.641141,0 -1.03569,0.49319 -0.394549,0.49318 -0.394549,1.13432 0.147956,0.73978 0.69046,0.73978 z M 41.38392,146.95782 q 0,1.82479 0.394549,1.82479 l 1.578195,-1.47956 v -0.34523 z m 0.394549,-0.88774 1.824788,0.2466 h -0.246593 q 0.147956,0 0.443867,-0.14796 0.295912,-0.14795 0.443868,-0.14795 v -1.82479 q 0,-0.0986 -0.04932,-0.0986 -0.147956,0 -0.641142,0.34523 -0.493186,0.34523 -1.03569,0.7891 -0.542505,0.44387 -0.739779,0.5425 z m 14.894217,-1.085 q 0,0.24659 0.147956,0.5425 0.147955,0.29591 0.34523,0.29591 0.591823,0 1.134328,-1.08501 0.542504,-1.08501 0.542504,-1.72615 0,-0.0986 -0.147956,-0.29591 -0.09864,-0.24659 -0.197274,-0.24659 l -1.479558,1.47955 -0.04932,0.0986 q 0,0.44387 0.641142,0.44387 -0.246593,0 -0.591823,0.19727 -0.34523,0.19728 -0.34523,0.29592 z m -13.020111,-1.62752 q -1.331602,0 -1.775469,0.34523 -0.394549,0.29591 -0.394549,1.72615 2.170018,-1.47956 2.170018,-2.07138 z m 0.246593,-2.17002 q -1.331602,1.13433 -1.479557,1.82479 0.591823,0 0.789097,0 0.197274,0 0.443867,-0.0986 0.295912,-0.0986 0.345231,-0.29591 0.09864,-0.24659 0.09864,-0.64114 0,-0.19727 -0.197275,-0.7891 z m 13.217385,0.49319 q -0.394549,0.44387 -0.394549,0.88773 0,0.44387 0.295912,0.44387 1.085009,-0.64114 1.282284,-1.18365 0.246593,-0.59182 0.246593,-2.26865 0,-1.13433 -0.789098,-1.13433 -0.147956,0 -0.443867,0.0493 -0.246593,0 -0.295912,0 l -0.295912,2.26866 q 0.838417,0.19727 0.838417,0.39454 0,0.0986 -0.443868,0.54251 z m -15.338084,0.24659 q 0,0.73978 0.295911,0.7891 0.147956,-0.44387 0.986372,-1.28228 0.887735,-0.88774 0.887735,-1.5782 0,-0.83842 -0.246593,-0.98637 l -0.246593,-0.14796 q 0,-0.19727 0.197274,-0.73978 0,-0.49318 -1.874106,-0.49318 v 1.8741 l 0.246593,1.13433 q 0,0.19728 -0.147956,0.64114 -0.09864,0.39455 -0.09864,0.7891 z" />
      <path
         id="path3891"
         style="font-style:normal;font-variant:normal;font-weight:normal;font-stretch:normal;font-size:49.3185997px;font-family:CabinSketch;-inkscape-font-specification:'CabinSketch, Normal';font-variant-ligatures:normal;font-variant-caps:normal;font-variant-numeric:normal;font-feature-settings:normal;text-align:start;writing-mode:lr-tb;text-anchor:start;fill:#cccccc;fill-opacity:1;stroke-width:3.94547391px"
         d="m 75.732013,160.22452 q -0.394549,0 -1.08501,0.0493 -0.641141,0.0493 -0.937053,0.0493 -1.430239,0 -1.430239,-1.38092 -0.690461,0 -1.232965,-0.29591 -0.493186,-0.29591 -0.937054,-0.98637 -0.394549,-0.73978 -0.542504,-1.08501 -0.147956,-0.39455 -0.542505,-1.38092 -0.591823,-7.10188 -0.591823,-20.07267 0,-7.54575 0.34523,-10.35691 0.69046,-0.34523 2.1207,-0.59182 1.430239,-0.2466 2.1207,-0.59183 0.09864,-0.0493 0.147955,-0.0493 0.443868,0 0.443868,0.54251 0,3.74821 -0.295912,10.70213 -0.246593,6.95393 -0.295911,9.17326 0,1.0357 -0.197275,2.86048 -0.147956,1.82479 -0.147956,2.66321 0,1.47956 0.09864,2.56456 0.147955,1.0357 0.493186,2.17002 0.394548,1.08501 1.232965,1.67684 0.838416,0.59182 2.120699,0.59182 0.986372,0.34523 0.986372,0.64114 0,0.34523 -0.641141,1.77547 -0.591824,1.38092 -0.591824,1.47956 l -0.641141,0.24659 z m -4.2414,-3.25503 q 0,1.0357 1.232965,1.62752 1.232965,0.59182 2.268656,0.59182 0.295911,0 0.493186,-0.39455 l -0.345231,-0.24659 q 0.394549,-0.39455 0.394549,-0.5425 0,-0.0986 -0.887735,-0.54251 -0.838416,-0.44387 -1.03569,-0.49319 -0.147956,0 -0.493186,0.19728 -0.34523,0.14796 -0.739779,0.14796 0.04932,0 0.641142,-0.59183 0,-0.83841 -0.641142,-1.18364 -0.147956,0 -0.542505,0.69046 -0.34523,0.64114 -0.34523,0.73977 z m -0.937053,-0.83841 q 0.591823,0.29591 0.641141,0.29591 0.246593,0 0.591824,-1.03569 0.34523,-1.03569 0.34523,-1.43024 0,-0.49319 -0.147956,-0.64114 -0.09864,-0.14796 -0.493186,-0.14796 v -4.98118 l -0.295912,-0.29591 q 0.394549,0 0.394549,-1.92342 -0.493186,0 -0.937053,0.5425 -0.443868,0.49319 -0.443868,1.03569 0,0.0493 0.147956,0.19728 0.197275,0.0986 0.197275,0.14795 l -0.295912,0.29591 v 2.1207 q 0.34523,0.0986 0.34523,0.64115 0,0.59182 -0.197274,1.085 -0.147956,0.49319 -0.147956,1.08501 0,0.54251 0.493186,1.03569 0.493186,0.49319 0.493186,0.83842 0,0.14796 -0.34523,0.59182 -0.295912,0.39455 -0.34523,0.54251 z m 0.986372,-11.63919 q -1.282284,0 -1.282284,1.57819 0.04932,0 0.295912,-0.19727 0.295911,-0.19727 0.34523,-0.19727 0.04932,-0.0493 0.246593,-0.19728 0.197274,-0.19727 0.246593,-0.29591 0.04932,-0.0986 0.09864,-0.29591 0.04932,-0.19728 0.04932,-0.39455 z m -1.578196,-2.26866 q 0,0.34523 0.197275,0.7891 0.197274,0.39455 0.197274,0.93705 h 1.134328 v -1.57819 H 70.89879 q 0.591823,-0.7891 0.591823,-2.21934 0,-0.29591 -0.147956,-0.7891 -0.147956,-0.49318 -0.147956,-0.78909 0.09864,-0.49319 0.246593,-1.08501 0.197275,-0.64114 0.295912,-1.13433 0.09864,-0.5425 0.09864,-1.28228 0,-0.2466 -0.34523,-0.59183 0,0.69046 -0.591823,0.69046 -0.04932,0 -0.197275,-0.0493 l -0.147955,-0.0493 q 0.542504,-0.29592 0.542504,-1.18365 h 0.739779 v -1.82479 q -1.085009,1.28229 -1.430239,1.28229 l -0.04932,-0.0493 q -0.04932,0 -0.09864,0 0.937053,-1.03569 1.232965,-1.82479 -1.824788,0 -1.824788,0.69046 0,0.39455 0.04932,0.73978 0.04932,0.34523 0.147956,0.59182 0.09864,0.19728 0.197275,0.39455 0.09864,0.14796 0.147955,0.24659 l 0.04932,0.0986 q 0,0.0986 -0.295912,0.7891 -0.295911,0.64114 -0.295911,0.98637 0.295911,-0.29591 0.591823,-0.29591 0.04932,0 0.147956,0.14795 0.147956,0.0986 0.147956,0.14796 -0.591824,0.59182 -0.591824,1.03569 0,0.24659 0.246593,0.34523 0.295912,0.0986 0.345231,0.14796 -0.789098,0.24659 -0.789098,2.21933 0.34523,0 0.591823,-0.19727 0.295912,-0.24659 0.394549,-0.24659 0.04932,0 0.04932,0 l 0.09864,0.0493 q -0.09864,0.2466 -0.937054,1.5782 0.147956,0.24659 0.937054,0.24659 -0.09864,0.14796 -0.542505,0.39455 -0.394549,0.24659 -0.394549,0.64114 z m 0,-13.21738 v 1.82479 q 1.134328,-1.43024 1.232965,-1.47956 -0.147955,0.83842 -0.641141,1.47956 0.246593,0.0493 0.542504,0.0493 0.739779,0 0.739779,-0.29592 v -4.83322 q -1.282283,0 -1.676832,0.64114 -0.394549,0.59183 -0.394549,2.02207 h 0.69046 q 0,0.0493 0.04932,0.14795 l 0.04932,0.0986 q 0,0.0986 -0.246593,0.24659 -0.197275,0.0986 -0.345231,0.0986 z" />
      <path
         id="path3893"
         style="font-style:normal;font-variant:normal;font-weight:normal;font-stretch:normal;font-size:49.3185997px;font-family:CabinSketch;-inkscape-font-specification:'CabinSketch, Normal';font-variant-ligatures:normal;font-variant-caps:normal;font-variant-numeric:normal;font-feature-settings:normal;text-align:start;writing-mode:lr-tb;text-anchor:start;fill:#cccccc;fill-opacity:1;stroke-width:3.94547391px"
         d="m 86.700005,158.74496 q -1.627513,0 -1.627513,-6.26346 0,-0.93705 0.197274,-2.41661 0.197274,-1.47956 0.197274,-1.97274 0,-2.3673 -0.641141,-7.9403 -0.394549,-0.0493 -1.726151,-0.34523 -1.282284,-0.29591 -1.676833,-0.29591 -0.246593,0 -0.591823,-0.69046 -0.34523,-0.73978 -0.34523,-1.18365 0,-0.83841 0.542504,-1.23296 0.591824,-0.39455 1.282284,-0.34523 0.69046,0 1.282284,-0.0493 0.591823,-0.0986 0.641141,-0.39455 0,-3.35366 0.591824,-3.94549 0.641141,0.2466 0.641141,2.31798 0,0.39455 0,0.88773 l -0.04932,0.44387 0.295911,0.29591 0.542505,-0.24659 q 0.591823,-0.29591 1.085009,-0.59183 0.542505,-0.34523 0.542505,-0.59182 0,-0.0493 -0.04932,-0.14795 0,-0.14796 0,-0.2466 0.295912,-1.82479 0.295912,-2.46593 h -0.09864 q -0.197275,0 -1.232965,0.49319 -1.035691,0.44387 -1.08501,0.44387 0.246593,-0.2466 1.232965,-0.93706 -0.986372,-0.19727 -1.528876,-0.59182 0.641142,-0.5425 1.874107,-0.59182 1.282283,-0.0986 1.775469,-0.29592 0,0.19728 0.295912,0.49319 0.295911,0.24659 0.295911,0.39455 0,0.0493 -0.147955,0.59182 -0.147956,0.54251 -0.147956,0.64114 0,2.41662 0.739779,3.05776 0.739779,0.59182 2.909797,0.59182 0.34523,0 0.986372,-0.14795 0.641142,-0.14796 1.085009,-0.14796 0.147956,0 0.394549,0.24659 0.295912,0.19728 0.295912,0.34523 v 3.64958 l -0.34523,0.29591 q -4.438674,0 -6.066188,0.29591 0,0.0493 0,0.19728 0.04932,0.0986 0.04932,0.14795 0,0.49319 -0.34523,1.52888 -0.295911,1.03569 -0.295911,1.47956 0,0.0986 0.09864,0.24659 0.147956,0.0986 0.197274,0.0986 v 5.12913 q 0.34523,0.34523 0.34523,1.52888 0,0.24659 0,0.5425 0,0.29591 -0.04932,0.49319 0,0.14795 0,0.19727 0.246593,0.0493 0.295911,0.69046 0.04932,0.59183 0.09864,1.33161 0.09864,0.69046 0.986372,1.38092 0.887734,0.69046 2.564567,0.83841 l 0.34523,0.0493 q 0.394549,0.0493 0.493186,0.0493 0.09864,0 0.34523,0.0986 0.295912,0.0986 0.34523,0.24659 0.09864,0.0986 0.197275,0.29591 0.09864,0.19728 0.09864,0.49319 0,0.64114 -0.09864,1.08501 -0.09864,0.44386 -0.197275,0.69046 -0.09864,0.19727 -0.394548,0.69046 -0.295912,0.49318 -0.493186,0.83841 -1.282284,-0.0986 -3.748214,-0.93705 -2.46593,-0.7891 -3.501621,-0.83842 z m 6.608693,-0.64114 q -0.690461,0.39455 -0.690461,0.93706 h 1.134328 q 0,-0.7891 -0.443867,-0.93706 z m -4.142763,-0.39455 q 0,1.03569 0.739779,1.03569 0.690461,0 0.986372,-0.64114 0.04932,0 0.147956,0.0986 0.09864,0.0493 0.147956,0.0493 v 0.5425 q 1.183646,0 2.1207,-1.28228 -0.09864,-0.59182 -2.1207,-0.59182 -0.493186,0 -0.937053,0.29591 0.04932,-0.0493 0.04932,-0.19728 0,-0.29591 -0.542504,-0.49318 -0.542505,-0.2466 -0.838417,-0.2466 -0.295911,0 -0.838416,0.14796 -0.493186,0.14796 -0.838416,0.14796 0.04932,-0.14796 0.493186,-0.39455 0.493186,-0.2466 0.887735,-0.39455 l 0.443867,-0.14796 0.04932,-0.0986 q 0,-0.44387 -0.34523,-0.44387 -0.04932,0 -0.197275,0.0493 -0.147956,0 -0.246593,0 0,-0.14796 0.04932,-0.93706 0.09864,-0.83841 0.09864,-0.93705 -0.04932,-0.59182 -0.295912,-1.77547 -0.246593,-1.18365 -0.295911,-1.28228 l -0.34523,-0.29591 0.34523,-0.29592 q 0,-0.0493 0,-0.49318 0.04932,-0.44387 0.04932,-0.64114 0,-1.08501 -0.246593,-3.10708 -0.197274,-2.07138 -0.197274,-3.20571 -0.591823,0 -0.887735,0.73978 -0.295911,0.69046 -0.295911,1.38092 0,0.59183 0.147955,0.7891 0.147956,0.19728 0.147956,0.2466 0,0.19727 -0.197274,0.44386 -0.147956,0.2466 -0.147956,0.69046 0,1.03569 0.493186,1.03569 0.09864,0 0.197274,-0.0493 -0.246593,0 -0.443867,0.78909 -0.197274,0.73978 -0.197274,1.38092 0.34523,0 0.34523,0.2466 0,0.19727 -0.34523,0.69046 -0.345231,0.44386 -0.345231,0.49318 0,0.59183 0.246593,1.08501 0.246593,0.49319 0.246593,0.69046 0,0.39455 -0.443867,1.03569 0.34523,0.88774 0.591823,0.88774 0.887735,0 1.282284,-0.29591 -0.197275,0.29591 -0.789098,0.59182 -0.542504,0.29591 -0.789097,0.34523 0,2.31797 2.860478,2.31797 z m -3.15639,-16.07786 q 0,0.93705 0.295912,0.98637 1.282283,-0.98637 1.282283,-2.1207 l -0.04932,-0.34523 q -0.591824,0 -1.08501,0.54251 -0.443867,0.49318 -0.443867,0.93705 z m 2.1207,-3.60026 q -0.246593,0.14796 -0.986372,0.54251 -0.690461,0.39455 -1.085009,0.69046 -0.394549,0.29591 -0.394549,0.59182 h 0.641142 l 1.824788,-1.52888 z m -6.3621,-0.14795 q 0,0.29591 1.08501,0.5425 1.134327,0.24659 1.627513,0.24659 l 2.761842,-2.17001 h 0.641142 l -1.578195,1.52887 v 0.29591 l 3.057753,-1.52887 q -0.34523,-0.14796 -0.937054,-0.83842 -0.542504,-0.69046 -0.838416,-0.69046 -0.69046,0 -0.69046,0.64114 h 0.34523 q -0.394549,0.64114 -1.77547,1.03569 -1.38092,0.39455 -2.564567,0.59183 -1.134328,0.19727 -1.134328,0.34523 z m 11.29396,-0.7891 -1.528877,0.0493 q -0.394549,0.0493 -1.134328,0.5425 -0.739779,0.44387 -0.739779,0.64114 v 0.39455 q 0.246593,0 0.986372,-0.44386 0.789098,-0.44387 0.887735,-0.54251 l -0.641142,0.93705 q 0.591824,0 1.676833,-0.14795 1.085009,-0.19728 1.627514,-0.19728 l 0.34523,-1.18364 q -0.147956,0 -0.789098,0 -0.591823,-0.0493 -0.69046,-0.0493 z m -2.170019,-0.29591 q -0.69046,0 -1.232965,0.93705 0.246593,-0.0493 0.789098,-0.34523 0.591823,-0.34523 0.739779,-0.59182 z" />
      <path
         id="path3895"
         style="font-style:normal;font-variant:normal;font-weight:normal;font-stretch:normal;font-size:49.3185997px;font-family:CabinSketch;-inkscape-font-specification:'CabinSketch, Normal';font-variant-ligatures:normal;font-variant-caps:normal;font-variant-numeric:normal;font-feature-settings:normal;text-align:start;writing-mode:lr-tb;text-anchor:start;fill:#cccccc;fill-opacity:1;stroke-width:3.94547391px"
         d="m 115.25548,156.82154 q -0.0493,0 -0.93706,1.03569 -0.83841,0.98637 -2.31797,1.57819 -1.47956,0.59183 -4.04413,0.59183 -3.60025,0 -5.52368,-3.00844 -1.92343,-3.05775 -2.21934,-7.29915 0,-0.14796 -0.14795,-1.82479 -0.147958,-1.67683 -0.197277,-1.82479 v -0.64114 q 0.591827,-2.95911 0.591827,-3.30434 0,-0.19728 -0.14796,-1.67684 -0.0986,-1.52887 -0.0986,-1.67683 v -0.49318 q 0,-0.73978 0.2466,-1.47956 0.29591,-0.7891 0.93705,-0.7891 l 3.05775,0.34523 q 0.69046,0 0.69046,2.95912 0,1.08501 -0.0986,2.17001 l 0.29591,0.29592 q 0,1.13432 -0.0493,3.00843 0,1.87411 0,2.61389 0,4.38935 1.03569,6.1155 1.08501,1.72615 4.53731,1.72615 1.87411,0 3.00844,-0.34523 1.13432,-0.34523 1.82478,-1.52887 0,-0.29591 0,-0.88774 0.0493,-0.59182 0.0493,-0.88773 0,-1.77547 -0.24659,-5.32641 -0.19728,-3.55094 -0.19728,-5.37573 0,-3.25503 0.0986,-3.35366 l 0.54251,-0.29592 h 3.40298 q 0.24659,0 0.73978,9.17326 0.49318,9.12395 0.49318,12.13238 -0.39454,1.38092 -3.64957,1.38092 -1.03569,0 -1.38092,-0.34523 -0.34523,-0.34523 -0.34523,-1.3316 0,-0.34523 0,-0.83842 0.0493,-0.49318 0.0493,-0.59182 z m -9.2719,1.13433 q 0.7891,0.59182 2.61389,0.59182 1.13432,0 1.62751,-0.59182 v 0.69046 q 1.43024,0 2.07138,-0.29591 0.69046,-0.29592 1.28228,-1.33161 l 0.34523,0.29592 0.88774,-0.88774 q -0.0986,0 -0.34523,0 -0.24659,-0.0493 -0.29591,-0.0493 -0.93706,0 -1.52888,0.34523 h -4.53731 q -0.19728,0 -1.03569,0.49319 -0.7891,0.49318 -1.08501,0.73978 z m 10.70214,0.34523 0.44386,0.44386 1.62752,-0.5425 v -0.24659 z m -12.87216,-1.28229 q 1.18365,0.34523 1.52888,0.59183 l 1.82479,-0.88774 v -0.29591 h -0.59183 v -0.64114 h -2.76184 v -0.34523 l 0.24659,0.0493 q 0.19728,0 0.39455,0 1.18365,0 1.18365,-0.59183 0,-0.49318 -0.29591,-0.64114 l -0.88774,0.64114 q 0,-0.29591 0.14796,-0.73978 0.14795,-0.44386 0.14795,-0.78909 -0.14795,0.0986 -0.83841,0.24659 -0.64114,0.14796 -1.13433,0.39455 -0.49319,0.19727 -0.49319,0.59182 l 0.0493,0.29591 z m 14.8449,-1.28228 q -0.54251,0 -1.13433,0.5425 -0.5425,0.54251 -0.59182,1.0357 l 0.29591,0.0493 q 0.29591,0 0.5425,0 1.28229,0 1.28229,-0.73978 0,-0.88773 -0.39455,-0.88773 z m -2.71252,0.44387 q 0,0.19727 0.34523,0.5425 l 1.82478,-1.23296 v -0.7891 q 0.14796,0 0.39455,0.0986 0.2466,0.0986 0.29592,0.0986 0.24659,0 0.24659,-0.64114 0,-0.14795 -0.19728,-0.5425 -0.14795,-0.39455 -0.19727,-0.39455 -0.24659,0 -0.54251,0.19727 -0.24659,0.19728 -0.44386,0.34523 l -0.14796,0.14796 q 0,0.49318 0.34523,0.59182 -0.44387,0.69046 -1.08501,1.13433 -0.59182,0.44387 -0.83841,0.44387 z m -14.25308,-4.38936 q 0,0.0493 0,0.19728 0,0.14795 0,0.24659 0,0.0493 0,0.19727 0,0.14796 0,0.2466 0.0493,0.0493 0.0493,0.19727 0.0493,0.0986 0.0986,0.19728 0.0493,0.0493 0.0986,0.14795 0.0493,0.0493 0.14796,0.0986 0.0986,0.0493 0.19727,0.0986 0.0986,0 0.2466,0 0.78909,0 1.47956,-0.29592 0.73977,-0.34523 0.73977,-0.98637 0,-0.59182 -0.59182,-0.59182 -0.14795,0.0493 -0.59182,0.59182 -0.44387,0.54251 -0.64114,0.93706 l -0.59183,-0.29592 q 1.03569,-1.18364 1.18365,-1.82478 -0.19728,0 -0.69046,0.0493 -0.44387,0 -0.64114,0.0493 -0.14796,0 -0.34523,0.19728 -0.14796,0.19727 -0.14796,0.5425 z m 15.48604,0.7891 q 0,0.69046 0.34523,0.7891 0.93706,-0.93706 0.93706,-1.03569 0,-0.14796 -0.34524,-0.29592 -0.34523,-0.19727 -0.59182,-0.19727 -0.34523,0 -0.34523,0.73978 z m 1.67683,-2.6632 q -0.49318,0 -0.93705,0.44386 -0.44387,0.39455 -0.44387,0.93706 0.88774,0 1.13433,-0.19728 0.24659,-0.24659 0.24659,-1.18364 z m -14.69694,-2.61389 q -1.28228,1.08501 -2.76184,3.00843 h 2.76184 q 0.0493,0 0.14796,-0.34523 0.14795,-0.34523 0.14795,-0.5425 0,-0.34523 -0.14795,-1.03569 -0.14796,-0.69046 -0.14796,-1.08501 z m 13.71057,0.5425 q -0.98637,0 -0.98637,2.26866 0.73978,0 1.23296,-0.59182 0.54251,-0.59183 0.54251,-1.33161 h -0.54251 q 0.49319,-0.39454 0.49319,-2.71252 -0.64114,0 -1.03569,0.49319 -0.39455,0.49318 -0.39455,1.13432 0.14796,0.73978 0.69046,0.73978 z m -16.57105,-0.88773 q 0,1.82479 0.39455,1.82479 l 1.5782,-1.47956 v -0.34523 z m 0.39455,-0.88774 1.82479,0.2466 h -0.24659 q 0.14795,0 0.44386,-0.14796 0.29592,-0.14795 0.44387,-0.14795 v -1.82479 q 0,-0.0986 -0.0493,-0.0986 -0.14795,0 -0.64114,0.34523 -0.49319,0.34523 -1.03569,0.7891 -0.5425,0.44387 -0.73978,0.5425 z m 14.89422,-1.085 q 0,0.24659 0.14795,0.5425 0.14796,0.29591 0.34523,0.29591 0.59183,0 1.13433,-1.08501 0.54251,-1.08501 0.54251,-1.72615 0,-0.0986 -0.14796,-0.29591 -0.0986,-0.24659 -0.19727,-0.24659 l -1.47956,1.47955 -0.0493,0.0986 q 0,0.44387 0.64114,0.44387 -0.24659,0 -0.59182,0.19727 -0.34523,0.19728 -0.34523,0.29592 z m -13.02011,-1.62752 q -1.3316,0 -1.77547,0.34523 -0.39455,0.29591 -0.39455,1.72615 2.17002,-1.47956 2.17002,-2.07138 z m 0.24659,-2.17002 q -1.3316,1.13433 -1.47956,1.82479 0.59183,0 0.7891,0 0.19727,0 0.44387,-0.0986 0.29591,-0.0986 0.34523,-0.29591 0.0986,-0.24659 0.0986,-0.64114 0,-0.19727 -0.19728,-0.7891 z m 13.21739,0.49319 q -0.39455,0.44387 -0.39455,0.88773 0,0.44387 0.29591,0.44387 1.08501,-0.64114 1.28228,-1.18365 0.2466,-0.59182 0.2466,-2.26865 0,-1.13433 -0.7891,-1.13433 -0.14796,0 -0.44387,0.0493 -0.24659,0 -0.29591,0 l -0.29591,2.26866 q 0.83841,0.19727 0.83841,0.39454 0,0.0986 -0.44386,0.54251 z m -15.33809,0.24659 q 0,0.73978 0.29591,0.7891 0.14796,-0.44387 0.98637,-1.28228 0.88774,-0.88774 0.88774,-1.5782 0,-0.83842 -0.24659,-0.98637 l -0.2466,-0.14796 q 0,-0.19727 0.19728,-0.73978 0,-0.49318 -1.87411,-0.49318 v 1.8741 l 0.24659,1.13433 q 0,0.19728 -0.14795,0.64114 -0.0986,0.39455 -0.0986,0.7891 z" />
      <path
         id="path3897"
         style="font-style:normal;font-variant:normal;font-weight:normal;font-stretch:normal;font-size:49.3185997px;font-family:CabinSketch;-inkscape-font-specification:'CabinSketch, Normal';font-variant-ligatures:normal;font-variant-caps:normal;font-variant-numeric:normal;font-feature-settings:normal;text-align:start;writing-mode:lr-tb;text-anchor:start;fill:#cccccc;fill-opacity:1;stroke-width:3.94547391px"
         d="m 128.38964,156.82154 v -20.61518 h 5.17845 q 0.59182,0 0.59182,0.39455 0,0.14796 -0.24659,0.98638 -0.24659,0.83841 -0.24659,0.93705 l 1.13432,-1.13433 q 4.34004,-2.81116 6.90461,-2.81116 0.14795,0.19727 0.14795,1.18365 0,0.49318 -0.0986,1.67683 -0.0986,1.13433 -0.0986,1.77547 0,0.29591 0.0986,0.7891 0,0.0493 -1.62752,0.5425 -1.62751,0.44387 -3.40298,1.52888 -1.72615,1.08501 -1.92343,2.61388 -0.0493,0.2466 -0.24659,1.18365 -0.14795,0.88773 -0.29591,1.82479 -0.14796,0.88773 -0.14796,1.43024 0,1.23296 0.34523,3.79753 0.34523,2.51525 0.34523,3.84685 0,0.88774 -0.29591,2.17002 l 0.29591,0.34523 q -0.0493,0.29591 -1.28228,0.44387 -1.23296,0.19727 -1.77547,0.19727 -0.49319,0 -0.59182,-0.34523 -0.34523,0.64114 -1.38092,0.64114 -0.14796,0 -0.59183,-0.14795 -0.44386,-0.0986 -0.44386,-0.14796 z m 5.17845,0.88773 q -2.02206,0 -2.41661,0.98638 h 0.64114 q 1.77547,0 1.77547,-0.59183 z m -3.64958,-1.43024 q 0,0.49319 0.29591,1.23297 0.69046,-0.34523 1.28229,-1.03569 0.59182,-0.69046 0.83841,-1.43024 -0.24659,0.14796 -0.93705,0.39455 -0.69046,0.24659 -1.08501,0.44387 -0.39455,0.19727 -0.39455,0.39454 z m 3.35367,-0.98637 q -1.13433,1.08501 -1.82479,2.21934 h 0.34523 q 0.24659,0 0.98637,-0.29591 0.7891,-0.29591 0.7891,-0.39455 z m -0.29591,-3.30434 q -0.29592,0.44386 -1.03569,1.3316 -0.73978,0.88773 -1.08501,1.43024 1.43024,0 1.92342,-0.29591 0.49319,-0.34523 0.49319,-1.5782 0,-0.59182 -0.29591,-0.88773 z m -3.35367,1.52887 q 0,0.0493 0.29591,0.93706 0.14796,-0.14796 0.49319,-0.49319 0.39455,-0.34523 0.59182,-0.5425 0.24659,-0.2466 0.49319,-0.54251 0.29591,-0.29591 0.39455,-0.49318 0.14795,-0.2466 0.14795,-0.39455 -0.19727,-0.0493 -0.24659,-0.0493 -2.17002,0 -2.17002,1.57819 z m 0.59182,-2.1207 q 0.19728,0.2466 0.49319,0.2466 0.83842,0 1.52888,-0.54251 0.73978,-0.5425 0.73978,-1.3316 0,-1.08501 -0.29592,-1.43024 -0.0493,0.0986 -1.03569,1.23296 -0.93705,1.08501 -1.43024,1.82479 z m 1.67684,-3.35366 q -1.97275,0.29591 -1.97275,0.59182 v 1.87411 l 2.1207,-2.46593 z m -1.38092,-0.64114 v 0.34523 q 0.59182,-0.0493 1.43024,-0.34523 0.83841,-0.34523 1.03569,-0.54251 0.0986,-0.39455 0.29591,-1.38092 0.19727,-0.98637 0.29591,-1.38092 0.0986,-0.44387 0.29591,-1.23296 0.24659,-0.83842 0.44387,-1.38093 0.19727,-0.5425 0.49318,-1.23296 0.29592,-0.69046 0.64115,-1.3316 -3.15639,2.61388 -4.93186,5.77027 h 0.19727 q 1.77547,-0.44386 2.26866,-0.59182 v 0.24659 z m 0.34523,-1.82479 q -1.13433,0 -1.13433,1.28228 h 0.49318 l 0.93706,-1.28228 z m 0.29591,-3.00844 q -0.7891,0 -1.03569,0.29592 -0.2466,0.29591 -0.2466,0.93705 0,0.0493 0,0.29591 0.0493,0.19727 0.0493,0.24659 z m 1.08501,-3.79753 q 0,1.23297 -1.72615,3.20571 0.69046,-0.24659 1.43024,-0.64114 0.73977,-0.44387 0.73977,-0.64114 v -3.00844 l -2.76184,-0.34523 v 0.98637 h 0.19728 q 0,0.34523 -0.14796,0.69046 -0.0986,0.34523 -0.0986,0.64115 0.83842,0 1.5782,-0.73978 l -1.52888,1.52887 v 0.64115 l 0.39455,-0.39455 q 0.34523,-0.44387 0.69046,-0.83842 0.39455,-0.39455 0.73978,-0.73978 0.39455,-0.34523 0.49319,-0.34523 z m 5.12913,0.49319 -1.47956,1.52887 q 0.2466,0.0493 0.29591,0.0493 0.54251,0 0.88774,-0.29591 0.34523,-0.34523 0.34523,-0.83842 v -0.19727 q -0.0493,-0.19727 -0.0493,-0.24659 z m 1.03569,-1.72615 q 0.7891,0 0.7891,1.08501 0,0.19727 -0.0493,0.59182 -0.0493,0.39455 -0.0493,0.5425 1.52888,-0.49318 1.52888,-2.21933 0,-0.39455 -0.69046,-0.88774 -0.69046,-0.5425 -0.69046,-0.73978 0,-0.0493 0.0986,-0.14795 -0.64115,0.64114 -0.64115,0.69046 0,0.0493 0,0.14795 l 0.0493,0.0986 q -0.29591,0.29591 -0.98637,0.59182 -0.64114,0.2466 -1.03569,0.64115 -0.39455,0.39454 -0.39455,1.18364 0.44387,-0.0986 1.03569,-0.83841 0.59182,-0.73978 1.03569,-0.73978 z" />
      <path
         id="path3899"
         style="font-style:normal;font-variant:normal;font-weight:normal;font-stretch:normal;font-size:49.3185997px;font-family:CabinSketch;-inkscape-font-specification:'CabinSketch, Normal';font-variant-ligatures:normal;font-variant-caps:normal;font-variant-numeric:normal;font-feature-settings:normal;text-align:start;writing-mode:lr-tb;text-anchor:start;fill:#cccccc;fill-opacity:1;stroke-width:3.94547391px"
         d="m 160.15082,157.56132 q -0.39455,0 -1.13433,0.49318 -0.69046,0.49319 -0.88774,0.49319 -2.46593,1.13433 -4.09344,1.13433 -3.10707,0 -5.8196,-1.82479 -2.71252,-1.87411 -2.71252,-5.32641 0,-0.64114 0.34523,-2.02206 0.39455,-1.43024 0.69046,-2.07138 1.08501,-1.5782 4.04413,-2.31798 2.95911,-0.78909 5.22777,-1.23296 2.31797,-0.49319 2.31797,-1.47956 0,-1.47956 -0.98637,-2.46593 -0.93705,-1.03569 -2.6632,-1.03569 -1.08501,0 -2.81116,0.7891 -1.67684,0.73978 -2.3673,0.73978 -1.28228,0 -1.28228,-2.61389 0,-2.9098 5.12913,-2.9098 0.64115,0 2.21934,0.2466 1.5782,0.24659 2.17002,0.24659 0.14796,0 0.5425,0 0.39455,-0.0493 0.59183,-0.0493 1.23296,0 1.23296,0.93705 1.18365,0 1.18365,0.88774 1.38092,0 1.97274,2.26865 0.59183,2.26866 0.59183,4.2414 0,1.28229 -0.39455,3.74822 -0.39455,2.46593 -0.39455,3.69889 0,0.29591 0.0986,0.88774 0.0986,0.5425 0.0986,0.83841 0,0.0493 -0.0493,0.19728 0,0.14795 0,0.24659 0.2466,0.49319 0.29592,0.54251 0,0.34523 0.49318,0.59182 0.54251,0.19727 1.18365,0.34523 0.64114,0.0986 1.13433,0.49318 0.5425,0.34523 0.5425,0.93706 0,2.1207 -1.23296,2.81116 -1.52888,-0.49319 -2.1207,-0.59183 -0.49319,-0.0986 -1.77547,-0.98637 -1.28229,-0.88773 -1.38092,-0.88773 z m -7.49643,0.59182 q 0.64114,0.39455 0.73978,0.39455 0.44386,0 0.44386,-0.93705 l -0.24659,-0.0493 q -0.59182,0 -0.93705,0.59182 z m 10.65282,0 q 0,0.49319 1.8741,0.49319 0,-1.03569 -0.49318,-1.03569 -1.08501,0 -1.38092,0.5425 z m -6.06619,-1.82479 q -0.7891,0 -1.62752,0.54251 -0.83841,0.49318 -0.83841,1.28228 l 2.1207,-0.5425 z m -7.05256,0.98638 q 0.0986,0.0493 0.44387,0.24659 0.34523,0.14795 0.59182,0.29591 0.29591,0.0986 0.44387,0.0986 0,-0.2466 -0.39455,-0.64114 -0.34523,-0.39455 -0.54251,-0.39455 -0.34523,0 -0.5425,0.39455 z m 13.11875,-0.54251 q -0.54251,0 -0.54251,0.73978 0.83842,0 0.98637,-0.34523 -0.24659,-0.39455 -0.44386,-0.39455 z m -1.72616,-0.0493 q 0,0.44387 0.34524,0.64114 0.39454,-0.24659 0.39454,-0.64114 z m -3.74821,-0.69046 v 1.03569 q 0.49319,0 0.88774,-0.44387 0.39454,-0.49318 0.39454,-1.03569 l -0.0493,-0.19727 q 0,-0.19727 0,-0.24659 l -0.64115,0.64114 0.0986,0.24659 z m 3.20571,-0.29591 q 0,0.14796 0.0986,0.29591 0.14795,0.14796 0.24659,0.14796 0.83842,0 0.83842,-1.28229 -0.29591,0 -0.73978,0.2466 -0.44387,0.24659 -0.44387,0.59182 z m -11.88578,-0.69046 q -0.64114,0 -0.73978,0.69046 0.73978,-0.0986 0.73978,-0.69046 z m 0.69046,-2.56457 q 0,3.30435 3.10707,3.30435 1.43024,0 3.60026,-0.83842 2.21933,-0.88773 2.21933,-2.1207 v -0.19727 q 0,-0.88774 -0.0493,-1.3316 0,-0.49319 -0.14796,-1.23297 -0.0986,-0.7891 -0.39455,-1.18365 -0.24659,-0.44386 -0.7891,-0.73977 -0.5425,-0.34523 -1.3316,-0.34523 -0.24659,0 -0.73978,0.24659 -0.49318,0.19727 -0.69046,0.19727 -0.34523,0 -0.7891,0.2466 -0.39454,0.19727 -1.03569,0.64114 -0.59182,0.39455 -0.73977,0.49318 -0.44387,0.2466 -0.98638,1.5782 -0.5425,1.28228 -1.23296,1.28228 z m -2.95912,2.3673 q 0.0493,0.14795 0.19728,0.34523 0.19727,0.14795 0.34523,0.24659 0.14795,0.0986 0.19727,0.0986 0.34523,0 0.59182,-0.59183 0.2466,-0.59182 0.2466,-0.88773 -1.23297,0 -1.5782,0.7891 z m 13.06943,-0.34524 q 0.0986,0.34524 0.49319,0.34524 0.0986,0 0.5425,-0.34524 0.44387,-0.39454 0.44387,-0.5425 0,-0.14796 -0.19728,-0.14796 -0.88773,0 -1.28228,0.69046 z m -11.44191,-1.57819 q -0.69046,0 -1.03569,0.73978 1.03569,0 1.03569,-0.73978 z m 13.06942,-0.64114 q -0.39454,0 -0.78909,0.39455 -0.34523,0.34523 -0.34523,0.73978 0.64114,0 0.88773,-0.2466 0.24659,-0.24659 0.24659,-0.88773 z m -14.10511,0.0986 q -0.14796,0 -0.39455,0.19727 -0.2466,0.19727 -0.2466,0.29591 l 0.0493,0.14796 q 0.14796,0 0.39455,-0.14796 0.24659,-0.14795 0.24659,-0.24659 v -0.0986 q -0.0493,-0.0986 -0.0493,-0.14795 z m 12.42828,-3.94549 q 0,0.5425 0.19728,1.43024 0.24659,0.88773 0.24659,1.43024 0,0.5425 -0.14796,1.18364 1.08501,-0.24659 1.5782,-2.17002 0.49319,-1.92342 0.49319,-4.09344 0,-1.28228 -0.14796,-1.77547 -1.08501,0 -3.05775,1.28228 0.0986,0.39455 0.98637,0.59183 0.88773,0.14795 1.08501,0.29591 -0.19728,0.29591 -0.39455,0.49318 -0.19728,0.14796 -0.34523,0.19728 -0.14796,0.0493 -0.29591,0.14796 -0.0986,0.0986 -0.14796,0.34523 -0.0493,0.19727 -0.0493,0.64114 z m -10.89941,3.35366 q 0.14796,-0.14795 0.14796,-0.49318 0,-0.0493 -0.2466,-0.0493 -1.43023,0 -1.72615,0.5425 z m -1.52887,-1.52887 q -0.34523,0 -0.34523,0.98637 0.73977,0 1.28228,-0.64114 -0.49319,-0.34523 -0.93705,-0.34523 z m 0.59182,-0.64115 q 0.0986,0.14796 0.59182,0.39455 0.49319,0.2466 0.64114,0.2466 0.0986,0 0.39455,-0.34523 0.29591,-0.39455 0.29591,-0.54251 h -1.3316 q 0.24659,-0.44387 2.17002,-1.08501 1.97274,-0.64114 2.41661,-1.3316 h -0.19727 q -2.1207,0 -2.21934,0.88773 -0.24659,0.0986 -0.69046,0.2466 -0.44387,0.14795 -0.69046,0.24659 -0.24659,0.0986 -0.54251,0.29591 -0.29591,0.14796 -0.49318,0.39455 -0.19728,0.24659 -0.34523,0.59182 z m 8.58144,-3.00843 q 0.5425,0.34523 1.47955,0.34523 0.44387,0 0.93706,-0.34523 -0.73978,-0.54251 -1.33161,-0.54251 -0.83841,0 -1.085,0.54251 z m -1.38093,-0.44387 -1.38092,0.69046 1.82479,-0.24659 z m 3.94549,-1.97274 -0.44387,0.5425 1.72616,-0.24659 z m 0.73978,-0.59183 1.82479,0.29592 0.0493,-0.14796 q 0.0986,-0.14796 0.14795,-0.29591 0.0986,-0.19728 0.0986,-0.24659 0,-0.19728 -0.19727,-0.44387 -0.14796,-0.24659 -0.2466,-0.24659 -0.29591,0 -0.88773,0.39454 -0.54251,0.34523 -0.7891,0.69046 z m 1.52888,-2.17001 q -0.0986,0.0493 -0.34523,0.0986 -0.19728,0.0493 -0.29591,0.0986 -0.0986,0.0493 -0.29592,0.14796 -0.19727,0.0493 -0.29591,0.0986 -0.0986,0.0493 -0.24659,0.14796 -0.14796,0.0986 -0.24659,0.24659 -0.0493,0.0986 -0.0986,0.2466 -0.0493,0.14795 -0.0493,0.34523 0.93705,0 1.87411,-1.43024 z m -2.41661,-0.7891 q 0,0.14795 0.19727,0.34523 0.19728,0.19727 0.44387,0.19727 1.23296,0 1.23296,-0.88773 0,-0.34523 -0.29591,-0.7891 -0.24659,-0.44387 -0.59182,-0.44387 z m -9.76509,-2.41661 q 0,0.73978 0.34523,1.08501 0.54251,0 1.72615,-0.34523 1.23297,-0.39455 1.5782,-0.88774 l 0.49319,0.39455 q 0.0493,0 0.29591,-0.19727 0.29591,-0.19728 0.44387,-0.19728 0.5425,0 1.28228,0.24659 0.7891,0.19728 1.43024,0.19728 0,-1.13433 -0.54251,-1.13433 -0.0986,0 -0.44386,0.0986 -0.29592,0.0493 -0.44387,0.0493 -0.93705,-0.0493 -1.28228,-0.0493 -2.76185,0 -4.88255,0.73978 z m 9.02531,-0.14796 q -0.44387,0 -0.7891,0.39455 -0.34523,0.34523 -0.34523,0.83842 0.0493,0 0.24659,0.0493 0.19728,0 0.2466,0 0.49318,0 1.23296,-0.19727 0.73978,-0.24659 0.73978,-0.59182 0,-0.49319 -1.3316,-0.49319 z" />
      <path
         id="path3901"
         style="font-style:normal;font-variant:normal;font-weight:normal;font-stretch:normal;font-size:49.3185997px;font-family:CabinSketch;-inkscape-font-specification:'CabinSketch, Normal';font-variant-ligatures:normal;font-variant-caps:normal;font-variant-numeric:normal;font-feature-settings:normal;text-align:start;writing-mode:lr-tb;text-anchor:start;fill:#cccccc;fill-opacity:1;stroke-width:3.94547391px"
         d="m 179.08916,160.22452 q -0.39455,0 -1.08501,0.0493 -0.64114,0.0493 -0.93705,0.0493 -1.43024,0 -1.43024,-1.38092 -0.69046,0 -1.23297,-0.29591 -0.49318,-0.29591 -0.93705,-0.98637 -0.39455,-0.73978 -0.54251,-1.08501 -0.14795,-0.39455 -0.5425,-1.38092 -0.59182,-7.10188 -0.59182,-20.07267 0,-7.54575 0.34523,-10.35691 0.69046,-0.34523 2.1207,-0.59182 1.43024,-0.2466 2.1207,-0.59183 0.0986,-0.0493 0.14795,-0.0493 0.44387,0 0.44387,0.54251 0,3.74821 -0.29591,10.70213 -0.24659,6.95393 -0.29591,9.17326 0,1.0357 -0.19728,2.86048 -0.14795,1.82479 -0.14795,2.66321 0,1.47956 0.0986,2.56456 0.14796,1.0357 0.49319,2.17002 0.39455,1.08501 1.23296,1.67684 0.83842,0.59182 2.1207,0.59182 0.98638,0.34523 0.98638,0.64114 0,0.34523 -0.64115,1.77547 -0.59182,1.38092 -0.59182,1.47956 l -0.64114,0.24659 z m -4.2414,-3.25503 q 0,1.0357 1.23297,1.62752 1.23296,0.59182 2.26865,0.59182 0.29591,0 0.49319,-0.39455 l -0.34523,-0.24659 q 0.39455,-0.39455 0.39455,-0.5425 0,-0.0986 -0.88774,-0.54251 -0.83842,-0.44387 -1.03569,-0.49319 -0.14796,0 -0.49319,0.19728 -0.34523,0.14796 -0.73978,0.14796 0.0493,0 0.64115,-0.59183 0,-0.83841 -0.64115,-1.18364 -0.14795,0 -0.5425,0.69046 -0.34523,0.64114 -0.34523,0.73977 z m -0.93705,-0.83841 q 0.59182,0.29591 0.64114,0.29591 0.24659,0 0.59182,-1.03569 0.34523,-1.03569 0.34523,-1.43024 0,-0.49319 -0.14795,-0.64114 -0.0986,-0.14796 -0.49319,-0.14796 v -4.98118 l -0.29591,-0.29591 q 0.39455,0 0.39455,-1.92342 -0.49319,0 -0.93706,0.5425 -0.44386,0.49319 -0.44386,1.03569 0,0.0493 0.14795,0.19728 0.19728,0.0986 0.19728,0.14795 l -0.29591,0.29591 v 2.1207 q 0.34523,0.0986 0.34523,0.64115 0,0.59182 -0.19728,1.085 -0.14795,0.49319 -0.14795,1.08501 0,0.54251 0.49318,1.03569 0.49319,0.49319 0.49319,0.83842 0,0.14796 -0.34523,0.59182 -0.29591,0.39455 -0.34523,0.54251 z m 0.98637,-11.63919 q -1.28228,0 -1.28228,1.57819 0.0493,0 0.29591,-0.19727 0.29591,-0.19727 0.34523,-0.19727 0.0493,-0.0493 0.24659,-0.19728 0.19727,-0.19727 0.24659,-0.29591 0.0493,-0.0986 0.0986,-0.29591 0.0493,-0.19728 0.0493,-0.39455 z m -1.5782,-2.26866 q 0,0.34523 0.19728,0.7891 0.19727,0.39455 0.19727,0.93705 h 1.13433 v -1.57819 h -0.59182 q 0.59182,-0.7891 0.59182,-2.21934 0,-0.29591 -0.14796,-0.7891 -0.14795,-0.49318 -0.14795,-0.78909 0.0986,-0.49319 0.24659,-1.08501 0.19728,-0.64114 0.29591,-1.13433 0.0986,-0.5425 0.0986,-1.28228 0,-0.2466 -0.34523,-0.59183 0,0.69046 -0.59182,0.69046 -0.0493,0 -0.19728,-0.0493 l -0.14795,-0.0493 q 0.5425,-0.29592 0.5425,-1.18365 h 0.73978 v -1.82479 q -1.08501,1.28229 -1.43024,1.28229 l -0.0493,-0.0493 q -0.0493,0 -0.0986,0 0.93705,-1.03569 1.23296,-1.82479 -1.82479,0 -1.82479,0.69046 0,0.39455 0.0493,0.73978 0.0493,0.34523 0.14796,0.59182 0.0986,0.19728 0.19727,0.39455 0.0986,0.14796 0.14796,0.24659 l 0.0493,0.0986 q 0,0.0986 -0.29592,0.7891 -0.29591,0.64114 -0.29591,0.98637 0.29591,-0.29591 0.59183,-0.29591 0.0493,0 0.14795,0.14795 0.14796,0.0986 0.14796,0.14796 -0.59183,0.59182 -0.59183,1.03569 0,0.24659 0.2466,0.34523 0.29591,0.0986 0.34523,0.14796 -0.7891,0.24659 -0.7891,2.21933 0.34523,0 0.59182,-0.19727 0.29591,-0.24659 0.39455,-0.24659 0.0493,0 0.0493,0 l 0.0986,0.0493 q -0.0986,0.2466 -0.93706,1.5782 0.14796,0.24659 0.93706,0.24659 -0.0986,0.14796 -0.54251,0.39455 -0.39455,0.24659 -0.39455,0.64114 z m 0,-13.21738 v 1.82479 q 1.13433,-1.43024 1.23297,-1.47956 -0.14796,0.83842 -0.64114,1.47956 0.24659,0.0493 0.5425,0.0493 0.73978,0 0.73978,-0.29592 v -4.83322 q -1.28228,0 -1.67683,0.64114 -0.39455,0.59183 -0.39455,2.02207 h 0.69046 q 0,0.0493 0.0493,0.14795 l 0.0493,0.0986 q 0,0.0986 -0.2466,0.24659 -0.19727,0.0986 -0.34523,0.0986 z" />
    </g>
    <path
       d="m 17.540769,120.24623 q 0.02749,-0.0259 -0.164982,-0.18097 -0.192481,-0.18098 -0.494948,-0.41367 -0.302469,-0.2327 -0.604938,-0.46538 -0.302468,-0.23269 -0.549942,-0.38781 -0.247475,-0.15513 -0.302469,-0.15513 -0.247474,0 -0.412457,0.15513 0,-0.18098 -1.099885,-1.73225 -1.072388,-1.5771 -1.127382,-2.09419 -0.02749,-0.12927 -0.02749,-0.36196 0,-0.15513 0,-0.38781 0.02749,-0.25855 0.02749,-0.36197 0,-0.43952 -0.164984,-0.80148 v -3.49034 q 0.247475,-0.25854 0.439955,-1.34441 0.19248,-1.08588 0.412457,-1.39614 2.804707,-4.00742 9.046556,-4.00742 2.062285,0 2.062285,0.5171 h 0.962401 q 0.02749,0.18098 0.577439,0.18098 l 0.192479,0.0776 q 0.219978,0.0517 0.467453,0.18098 0.27497,0.10341 0.412457,0.20683 0,0.0259 0,0.0259 l -0.02749,0.0517 q 0,0.10342 0.109988,0.18098 0.137485,0.0517 0.137485,0.64636 0,1.16345 -0.522445,1.16345 -0.824914,0 -2.419748,-0.31026 -1.567337,-0.3361 -2.364754,-0.3361 -0.879908,0 -2.529736,0.64636 -4.097073,1.55125 -4.097073,6.72212 0,1.26686 0.302469,2.40444 0.329966,1.1376 1.127383,2.06835 0.824914,0.93075 2.00729,1.11173 3.052182,0.31025 4.207062,0.31025 0.137485,0 0.76992,0 0.65993,-0.0259 0.769918,-0.0259 0.467453,-0.2844 0.467453,-1.42199 0,-0.54294 -0.302469,-2.06834 -0.137485,-0.5688 -0.797417,-0.5688 -0.055,0 -0.19248,0.0259 -0.109989,0 -0.19248,0 -0.494948,0 -0.76992,-0.28439 -0.274971,-0.31025 -0.274971,-1.24101 0,-0.98246 0.494949,-0.98246 0.109988,0 0.192479,0.0259 h 3.07968 q 1.347359,0 1.347359,0.31025 v 6.36015 q 0,0.95661 -0.852411,1.37028 -0.852411,0.41367 -1.952297,0.41367 -0.137485,0 -0.329966,-0.10342 -0.192479,-0.0776 -0.27497,-0.0776 -0.577441,0.43952 -2.69472,0.43952 -0.08249,0 -0.549942,0 -0.439954,0 -0.577441,0 -0.137485,0 -0.549942,-0.0259 -0.38496,0 -0.577439,-0.0259 -0.164984,-0.0259 -0.494949,-0.0776 -0.329965,-0.0259 -0.522446,-0.10343 -0.164982,-0.0517 -0.412457,-0.15511 -0.219976,-0.0776 -0.38496,-0.20684 z m 2.722217,-0.46537 -0.02749,0.0259 q 0,0.18098 1.04489,0.18098 0,-0.72392 -0.824914,-0.72392 -0.055,0 -0.137485,0.20684 -0.055,0.18097 -0.055,0.31025 z m 1.127383,-0.3361 q 0,0.49122 0.494948,0.49122 0.522445,0 0.742423,-0.15512 h 1.842307 l 0.192479,-0.18099 q -2.062285,-0.12926 -2.887199,-0.12926 -0.02749,0 -0.192479,0 -0.164982,-0.0259 -0.192479,-0.0259 z m -3.684616,0.0259 q 0.219976,0.31025 0.797416,0.31025 0.247474,0 0.357462,-0.20684 0.10999,-0.20683 0.192481,-0.28439 -0.055,-0.15513 -0.412457,-0.15513 -0.797417,0 -0.934902,0.33611 z M 20.1255,119.1604 q -0.522446,0 -0.742422,0.15513 -0.192481,0.15513 -0.192481,0.5688 0.522446,0 0.714926,-0.12928 0.219977,-0.15513 0.219977,-0.59465 z m 4.866992,0.31026 q 0.192481,0.15512 0.577441,0.15512 0.962399,0 1.127381,-0.3361 -0.357462,-0.15513 -0.879908,-0.15513 -0.549942,0 -0.824914,0.33611 z m -10.531401,-2.58544 q 0.247473,0.20684 0.824914,0.85319 0.577439,0.64636 1.099885,1.03418 0.522446,0.38781 1.099885,0.38781 0.055,0 0.38496,-0.18098 -0.02749,-0.0259 -0.08249,-0.10341 l -0.08249,-0.0776 q -0.38496,-0.18097 -0.412457,-0.36195 0,-0.18098 -0.08249,-0.25855 -0.302467,-0.2844 -0.577439,-0.31025 -0.274972,-0.0259 -0.467451,-0.33611 -0.219978,-0.3361 -0.879908,-1.68053 -0.632435,-1.37027 -0.632435,-1.65468 0,-0.0259 0.08249,-0.0776 0.08249,-0.0776 0.08249,-0.15512 0,-0.25854 -0.357463,-0.72392 l 0.357463,-0.18098 v -1.11173 q 0,-0.18098 -0.879909,-0.18098 l 0.19248,-0.10343 -0.19248,-0.20683 h 0.879909 v -0.36195 l -0.164984,-0.41367 q -0.38496,-0.23269 -0.38496,-0.54295 -1.154879,0 -1.154879,0.20684 v 1.31856 q 0.247474,0.0259 0.247474,0.28441 0,0.0776 -0.02749,0.25854 -0.02749,0.18098 -0.02749,0.25854 0,0.33611 0.467451,0.33611 0.219978,0 0.357463,-0.0259 -0.08249,0.12926 -0.494948,0.25854 -0.38496,0.10342 -0.38496,0.36196 0,0.12926 0.109988,0.38781 0.137486,0.25855 0.137486,0.51709 0,0.20683 -0.02749,0.59465 0,0.36196 0,0.38781 0.109989,0.0517 0.164983,0.23269 0.08249,0.18098 0.109988,0.36196 0.02749,0.18098 0.055,0.20684 0.055,0.10341 0.357463,0.41367 0.329965,0.28439 0.329965,0.31024 z m 11.356315,1.68053 q 0,0.0517 0.38496,0.23269 0.38496,0.18098 0.494948,0.18098 0.247475,0 0.247475,-0.67221 -1.127383,0 -1.127383,0.25854 z m 0.192481,-1.03417 v 0.33611 h 0.852411 v -0.64636 z m -0.164984,-0.56879 v 0.2844 q 0.879908,0 1.017395,-0.8532 -0.577441,0 -0.852411,0.33611 l 0.357463,-0.0259 -0.164984,0.20683 z m 0.494949,-1.1893 q -0.055,0.10341 -0.329965,0.23269 -0.247475,0.12927 -0.247475,0.36196 1.292365,0 1.264868,-3.05081 0,-0.23269 0,-0.25854 l -0.164982,-0.15513 h -1.319862 l -0.714926,0.77563 H 24.91 l 0.08249,0.0259 q 0.219978,0 0.577441,-0.12928 0.357463,-0.15512 0.577439,-0.15512 0,0.18098 -0.274972,0.51708 -0.247473,0.33611 -0.247473,0.5688 h 1.017393 q 0,0.28439 -0.439954,0.67221 -0.412457,0.36196 -0.412457,0.59465 z m -0.055,-1.11173 q -0.742422,0 -0.742422,0.6205 h 0.30247 l 0.494949,-0.6205 z m -1.539838,-1.26686 q -0.357463,0 -0.76992,0.46537 l 0.08249,0.0259 q 0.08249,0 0.76992,-0.49123 z m -1.457349,0.15512 q 0,0.12927 0.274972,0.12927 0.164982,0 0.76992,-0.31025 0.632433,-0.3361 0.797416,-0.46538 H 23.64513 Z m -10.036453,-4.16255 q 0,0.46539 0.38496,0.46539 h 1.209874 q 0,-0.41367 -0.522447,-0.77563 h 0.08249 l 0.137485,0.0517 q 0.109988,0.0259 0.247474,0.0776 0.137486,0.0259 0.219977,0.0259 -0.137485,-0.23268 -0.137485,-0.3361 0,-0.10342 0.219976,-0.15513 0.247475,-0.0517 0.247475,-0.18098 0,-0.15512 -0.109988,-0.3361 -0.10999,-0.20684 -0.10999,-0.33611 l 0.02749,-0.10342 q 0,-0.12927 0,-0.15513 l 0.522447,0.49123 q 0.109988,-0.0517 0.494948,-0.77562 -0.38496,-0.18098 -0.494948,-0.33611 0.192479,-0.0259 0.192479,-0.36196 0,-0.0776 -0.02749,-0.15512 0,-0.0776 0,-0.12928 0,-0.0517 -0.02749,-0.10342 v -0.0517 q 0.357463,0.49123 0.687429,0.49123 0.137485,0 0.219976,-0.0776 0.109989,-0.0776 0.192481,-0.23269 0.08249,-0.15513 0.109988,-0.2844 0.055,-0.12927 0.109988,-0.31025 0.055,-0.18098 0.08249,-0.23269 0.109989,0.38782 0.329965,0.49123 0.164984,-0.0776 0.164984,-0.31025 0,-0.43952 -0.38496,-0.72391 0,-0.0259 0,-0.0517 0.02749,-0.0259 0.02749,-0.0517 l 0.522445,0.3361 0.192479,-0.15512 -0.192479,-0.80148 q -0.274972,0.10341 -0.439954,0.28439 -0.164983,0.18098 -0.247475,0.33611 -0.055,0.15513 -0.164982,0.49123 -0.08249,-0.31025 -0.329966,-0.49123 -0.934902,0.64636 -0.934902,0.80149 0,0.0259 0.302469,0.10341 0.302467,0.0776 0.302467,0.10342 l -0.055,0.0517 q -0.02749,0.0517 -0.02749,0.0776 h -0.962396 q -0.08249,0 -0.467451,0.38781 -0.38496,0.36197 -0.522446,0.5688 -0.109989,0.10341 -0.38496,0.69806 -0.274971,0.59465 -0.494949,1.1376 -0.219976,0.54293 -0.192479,0.54293 z m 5.114466,-4.80889 q 0,0.85319 0.247475,0.85319 0.357463,0 0.604936,-0.33611 -0.439954,-0.51708 -0.852411,-0.51708 z m 1.53984,-0.77563 q -0.329966,0.98247 -0.329966,1.31857 0.247475,0 0.467451,-0.15513 0.219978,-0.18097 0.219978,-0.41367 0,-0.77562 -0.274972,-0.77562 z m 5.636912,1.11173 q 0.164983,0.20684 1.072388,0.20684 0,-0.18098 -0.247474,-0.43952 -0.219977,-0.2844 -0.274971,-0.2844 0,-0.0259 -0.137486,0.0776 -0.109989,0.10342 -0.247474,0.23269 -0.137485,0.12927 -0.164983,0.20683 z m -7.011768,-0.77563 q 0.08249,0.0776 0.219976,0.18098 0.137485,0.10342 0.274972,0.20684 0.137485,0.0776 0.192479,0.10342 0.357463,-0.5688 0.357463,-0.98247 -0.824914,0.20684 -1.04489,0.49123 z m 5.279448,0 q -0.219976,0.0776 -0.219976,0.49124 h 0.412457 q 0,-0.31026 -0.192481,-0.49124 z m -2.034788,-0.3361 q -0.192479,0.25854 -0.192479,0.64636 h 0.549942 q -0.192479,-0.54295 -0.357463,-0.64636 z m -1.402353,-0.15513 q 0,0.18098 0.19248,0.43952 0.219977,0.23269 0.302468,0.23269 0.247475,0 0.247475,-0.67221 z m 2.254765,0.15513 0.164983,0.3361 q 0.192479,-0.0517 0.192479,-0.3361 z"
       style="font-style:normal;font-variant:normal;font-weight:normal;font-stretch:normal;font-size:26.66306686px;line-height:125%;font-family:CabinSketch;-inkscape-font-specification:'CabinSketch, Normal';font-variant-ligatures:normal;font-variant-caps:normal;font-variant-numeric:normal;font-feature-settings:normal;text-align:start;letter-spacing:0px;word-spacing:0px;writing-mode:lr-tb;text-anchor:start;fill:#4d4d4d;fill-opacity:1;stroke:none;stroke-width:2.13303781px;stroke-linecap:butt;stroke-linejoin:miter;stroke-opacity:1"
       id="path3904" />
    <path
       d="m 29.968185,114.42902 q 0,-1.29272 0.494948,-2.84398 0.494948,-1.55125 1.209874,-2.66299 0.02749,0.0259 0.055,0.0259 0.164984,0 0.659932,-0.31025 0.522445,-0.33611 0.659932,-0.33611 1.897301,-0.41366 2.529736,-0.41366 v 0.23268 q 0.549942,-0.18097 1.347359,-0.18097 2.474742,0 2.474742,0.69806 0.714926,0 1.182377,0.5688 0.467451,0.54294 0.742423,1.18929 0.302467,0.64636 0.522445,0.74978 v 2.22347 l -0.494948,0.33611 0.137485,0.15512 q -0.742423,0.54294 -3.244662,0.54294 -2.639724,0 -3.107175,-0.0259 -0.439954,-0.0259 -1.787315,-0.20684 -0.02749,-0.15512 -0.164982,-0.15512 -0.02749,0 -0.137485,0.0259 -0.10999,0.0259 -0.164984,0.0259 0,0.74977 0.192481,1.65467 0.219976,0.9049 0.632433,1.31857 0.219978,0.20684 1.017395,0.49123 0.797417,0.2844 0.852411,0.31026 0.494948,0.3361 0.852411,0.3361 0.714925,0 2.172273,-0.3361 1.484846,-0.33611 2.172273,-0.33611 0.604938,0 0.604938,1.06002 0,0.51709 -0.109989,0.64636 -0.08249,0.12927 -0.302468,0.15513 -0.192481,0.0259 -0.329966,0.20683 -0.164983,0.0517 -3.217165,0.51708 -2.58473,0 -3.712113,-0.3361 -1.292365,-0.38781 -2.529736,-2.19762 -1.209874,-1.80979 -1.209874,-3.12837 z m 4.069576,4.5245 q 0.604936,0.15513 0.687429,0.18098 0.137485,0.12927 0.164982,0.12927 0.412457,0 0.714926,-0.23268 0.329965,-0.25855 0.329965,-0.62051 -1.044891,0 -1.044891,0.23269 0,-0.0776 -0.109988,-0.20683 -0.08249,-0.12928 -0.137487,-0.12928 -0.055,0 -0.357462,0.25854 -0.274971,0.2327 -0.274971,0.31026 0.02749,0.0517 0.02749,0.0776 z m 1.869805,0.18098 q 0.137486,0.12927 0.164983,0.12927 0.549942,0 1.787313,-0.20683 1.237371,-0.23269 1.622331,-0.23269 l 0.164983,0.0776 0.164983,0.0517 q 0.879908,0 0.879908,-0.54294 -0.522445,0 -1.374856,0.20684 -0.824914,0.18098 -1.209874,0.20683 -0.274972,0 -0.76992,0.0259 -0.494948,0.0259 -0.879908,0.0517 l -0.38496,0.0517 z m -2.557234,-0.64636 q 0,0.0259 0.08249,0.10343 0.08249,0.0517 0.10999,0.0517 0.247473,-0.0517 0.549942,-0.23269 0.302469,-0.18098 0.302469,-0.25854 0,-0.10342 -0.055,-0.18098 -0.055,-0.0776 -0.10999,-0.10342 -0.055,-0.0259 -0.08249,-0.0259 -0.247474,0 -0.522445,0.23268 -0.274972,0.20684 -0.274972,0.41367 z m -1.182377,-0.82734 0.879909,0.67221 q 0.329965,-0.46537 0.329965,-0.59465 l -0.02749,-0.0776 -0.989896,-0.12926 z m -0.494948,-0.77563 q 0.329966,0.23269 0.329966,0.64636 0.632435,-0.31025 0.632435,-0.98246 -0.797417,0 -0.962401,0.3361 z m 0.329966,-1.44784 q -0.522445,0.77563 -0.522445,1.03417 0.797417,0 1.04489,-0.20683 -0.08249,-0.18097 -0.27497,-0.41367 -0.192481,-0.25854 -0.247475,-0.41367 z m -0.109988,-0.36195 q -0.522447,0 -0.659932,0.15512 -0.137485,0.12927 -0.137485,0.64636 0.329966,0 0.549942,-0.23269 0.247475,-0.25855 0.247475,-0.56879 z m -0.577441,-0.74978 -0.329964,0.49124 q 0.02749,0 0.137485,0.0259 0.109988,0 0.137485,0 0.247475,0 0.494948,-0.10342 0.274972,-0.12928 0.274972,-0.33611 0,-0.0259 -0.08249,-0.15512 -0.08249,-0.15513 -0.08249,-0.23269 0.055,-0.12927 0.137485,-0.31025 0.109988,-0.20684 0.137485,-0.33611 0.055,-0.15512 0.055,-0.36196 0,-0.31025 -0.27497,-0.41367 -0.274972,-0.12927 -0.274972,-0.23268 0,-0.10343 0.164984,-0.46539 0.192479,-0.38781 0.192479,-0.51708 0,-0.23269 0.577439,-0.9049 0.577441,-0.69807 0.577441,-1.03417 0.055,0 0.329966,0.0517 0.27497,0.0517 0.357461,0.0517 0.08249,0 0.10999,-0.12926 0.02749,-0.15513 0.08249,-0.18099 0.137485,-0.0517 0.687429,-0.0517 0.549942,-0.0259 1.017393,-0.0776 0.494948,-0.0517 0.494948,-0.18098 -0.467451,-0.20684 -1.292365,-0.20684 -1.869804,0 -2.859702,1.1893 -0.962399,1.18931 -0.962399,2.9991 h 0.879908 v 0.15513 l -1.017393,0.95661 v 0.49123 z m 6.791793,-1.11173 h -0.934903 q -1.127382,0 -1.127382,0.41367 l 0.02749,0.0259 q 0,0.0259 0,0.0517 l 0.357463,-0.0259 q 0.357462,-0.0259 0.65993,-0.0517 0.329966,-0.0517 0.632435,-0.15513 0.329965,-0.10341 0.38496,-0.25854 z m -4.50953,-0.31026 q -0.055,0 -0.357463,0.25855 -0.274972,0.25854 -0.38496,0.38781 0.219978,-0.0517 0.494948,-0.10342 0.274972,-0.0517 0.412457,-0.0776 0.137487,-0.0259 0.329966,-0.10343 0.219978,-0.0776 0.467451,-0.20683 -0.08249,-0.0259 -0.852411,-0.15513 z m 0.962399,0.46539 q 0.549943,0.18097 0.9624,0.18097 0.247474,0 0.412457,-0.15512 0.19248,-0.15513 0.19248,-0.38782 -1.374856,0 -1.567337,0.36197 z m 5.966878,-1.00832 q 0,0.36196 -0.302468,0.51708 -0.302469,0.12927 -0.687429,0.10342 -0.357463,-0.0259 -0.659931,0.0776 -0.302468,0.0776 -0.302468,0.36196 1.924799,0 2.062285,-0.36196 0.137485,0.20683 0.38496,0.20683 0,-0.20683 -0.109989,-0.46537 -0.08249,-0.25854 -0.08249,-0.36196 0,-0.0776 0.192481,-0.20684 0.192479,-0.15513 0.192479,-0.5688 0,-1.00831 -0.632433,-1.00831 -0.192481,0 -0.302469,0.10342 -0.08249,0.0776 -0.109988,0.20683 0,0.10342 0,0.36196 0.302468,0.85319 0.357462,0.93075 z m -7.451722,0.31024 q -0.247475,0 -0.439954,0.18098 -0.164984,0.18099 -0.164984,0.41367 0.357463,0 0.467451,-0.12927 0.137487,-0.12927 0.137487,-0.46538 z m -0.219978,-0.85319 q 0.247475,0.43952 4.069576,0.43952 0.494948,0 1.292365,-0.10341 0.824914,-0.10342 1.292365,-0.10342 0,-0.12927 -0.192479,-0.51708 -0.192481,-0.41367 -0.302469,-0.41367 l -0.055,0.0259 q -0.192481,-0.54294 -1.237371,-0.9049 -1.017395,-0.36196 -1.73232,-0.36196 -2.364753,0 -3.134673,1.93907 z m 5.801895,-2.32688 q 0,0.20683 0.494948,0.6205 0.494949,0.41367 0.659932,0.41367 0.164982,0 0.439954,-0.10341 0.274971,-0.10343 0.274971,-0.2327 0,-0.12927 -0.109989,-0.46538 l -0.109988,-0.3361 q 0,0.15512 -0.329966,0.15512 -0.219976,-0.0259 -0.522445,-0.20683 -0.274972,-0.18098 -0.274972,-0.41367 -0.797416,0 -0.797416,-0.36195 -0.02749,0 -0.109989,0.10341 -0.08249,0.0776 -0.274971,0.18098 -0.164983,0.0776 -0.439954,0.0776 -0.109989,0 -0.274971,-0.10341 -0.164984,-0.10343 -0.357463,-0.10343 -0.02749,0 -0.19248,0.0259 -0.137486,0 -0.164983,0 0.055,0.0259 0.247475,0.33611 0.219976,0.31024 0.357462,0.33611 0.02749,0 0.19248,-0.0776 0.164982,-0.10342 0.274972,-0.10342 0.02749,0 0.384959,0.12927 0.357463,0.12928 0.632434,0.12928 z"
       style="font-style:normal;font-variant:normal;font-weight:normal;font-stretch:normal;font-size:26.66306686px;line-height:125%;font-family:CabinSketch;-inkscape-font-specification:'CabinSketch, Normal';font-variant-ligatures:normal;font-variant-caps:normal;font-variant-numeric:normal;font-feature-settings:normal;text-align:start;letter-spacing:0px;word-spacing:0px;writing-mode:lr-tb;text-anchor:start;fill:#4d4d4d;fill-opacity:1;stroke:none;stroke-width:2.13303781px;stroke-linecap:butt;stroke-linejoin:miter;stroke-opacity:1"
       id="path3906" />
    <path
       d="m 48.285142,120.58234 -2.144776,-1.26686 q -0.687428,0 -1.319862,-0.98247 -0.604937,-0.98245 -0.934903,-1.18929 -0.659931,-1.52541 -0.659931,-3.95571 l 1.044891,-2.74055 q 0.02749,-0.0517 0.742423,-0.72393 0.714925,-0.69806 1.072388,-1.00832 0.742422,-0.6205 1.842308,-1.03417 1.099885,-0.41367 2.089782,-0.41367 1.402354,0 2.887198,0.93076 2.007291,1.26686 2.859702,2.86983 0.879908,1.60296 0.879908,3.92985 0,0.0776 -0.02749,0.46538 0,0.36196 0,0.38781 -0.055,0.10342 -0.302468,0.25855 -0.219977,0.12927 -0.219977,0.38782 0,0.25854 0.164983,0.3361 -0.247474,0 -0.522446,0.82733 -0.274971,0.80149 -0.467451,0.93077 -2.832205,1.99077 -6.984272,1.99077 z m 2.914696,-0.59465 q -0.302468,0 -0.357462,0.20684 l 0.522445,-0.18099 -0.08249,-0.0259 z m -1.869804,-0.64636 q 0.577439,0.23269 1.402353,0.23269 0.522445,0 1.347359,-0.25854 0.824914,-0.28439 1.402355,-0.5688 0.577439,-0.28439 0.577439,-0.3361 v -0.18098 q -0.02749,0 -0.274971,0 -0.219977,0 -0.274971,0 -0.02749,0 -0.219978,0.0259 -0.164982,0 -0.247473,0.0259 -0.055,0.0259 -0.192481,0.0776 -0.137485,0.0259 -0.247474,0.10342 -0.109989,0.0517 -0.219977,0.12927 -0.329966,0.23268 -0.357463,0.23268 h -2.19977 z m 3.712113,0 -0.522446,0.20684 0.08249,0.0259 q 0.08249,0 0.109989,0 0.274971,0 0.329966,-0.23269 z m -4.537027,-0.49122 q -0.302469,0 -0.549943,0.20683 -0.219977,0.18098 -0.219977,0.43952 0.76992,0 0.76992,-0.64635 z m -1.292366,-0.25854 v 0.51708 q 0.329966,0 0.632434,-0.12928 0.302469,-0.12926 0.302469,-0.3878 0,-0.18099 -0.38496,-0.33611 -0.357463,-0.15513 -0.549943,-0.15513 h -0.08249 q -0.08249,0.0259 -0.549943,0.15513 -0.467451,0.12927 -0.494948,0.15512 0,0.49123 0.522445,0.49123 0.357463,0 0.604937,-0.31024 z m 2.034788,0.28439 q -0.38496,0 -0.439954,0.18098 h 0.08249 q 0.08249,0.0259 0.109989,0.0259 0.274971,0 0.494948,-0.18098 h -0.109989 q -0.109989,-0.0259 -0.137486,-0.0259 z m 5.279449,-0.12928 q -0.219976,0 -0.302468,0.15513 l 0.357462,-0.15513 z m -9.266533,-1.29271 v 0.18098 q 0.357462,0.67221 0.577439,0.67221 0.302469,0 0.632435,-0.20683 0.329965,-0.23269 0.329965,-0.51708 -0.439954,0 -0.549943,0.20683 v -0.80148 z m 1.704822,-5.24842 q -0.164983,0.41367 -0.357463,1.241 -0.19248,0.80149 -0.19248,1.24101 0,2.17176 2.392251,3.25764 0.109989,0 0.659931,0.0259 0.549943,0.0259 0.632434,0.0259 2.39225,0 3.244662,-1.06002 0.879908,-1.06003 0.879908,-3.38691 0,-0.41367 -0.247474,-1.21516 -0.219977,-0.82734 -0.439954,-1.241 -0.742423,-0.15512 -1.34736,-1.11174 -0.274971,0 -0.879908,-0.10341 -0.57744,-0.10342 -0.879908,-0.10342 -0.934903,0 -1.567337,0.31026 -0.632434,0.31024 -1.402354,1.00831 -0.137485,0.12927 -0.219977,0.56879 -0.055,0.43953 -0.274971,0.54295 z m 7.6717,4.93817 q -0.357462,0 -0.687428,0.25854 -0.302469,0.25854 -0.302469,0.59465 1.457349,0 1.457349,-0.69807 0,-0.15512 -0.467452,-0.15512 z m -9.733985,-0.15512 v 0.15512 q 0.494948,-0.0776 1.182377,-0.46538 0,-0.51708 -0.247475,-0.51708 l -0.08249,0.0259 z m 9.953962,-0.80149 q 0,0.41367 -0.439954,0.64636 0.02749,0 0.19248,0.0259 0.19248,0 0.247474,0 0.76992,0 0.76992,-0.67221 z m -10.476408,-0.15513 0.19248,0.64636 q 0.02749,-0.0259 0.137486,-0.0776 0.137486,-0.0776 0.19248,-0.10341 0.055,-0.0517 0.164983,-0.12928 0.109988,-0.10342 0.164983,-0.15513 0.08249,-0.0776 0.109988,-0.15513 0.055,-0.10341 0.055,-0.20683 -0.274972,-0.0259 -0.302469,-0.0259 -0.714926,0 -0.714926,0.20683 z m 10.75138,-1.18929 q 0,0.25854 -0.137487,0.51708 -0.109988,0.25854 -0.109988,0.54295 1.044892,0 1.044892,-0.67222 0,-0.38781 -0.797417,-0.38781 z m -10.36642,0.54293 0.824914,0.18099 q 0.247474,0 0.247474,-0.69807 -0.109988,0 -0.522445,0.18099 -0.38496,0.18097 -0.549943,0.33609 z m 0.742423,-0.93075 h -1.237371 q -0.274971,0 -0.274971,0.80149 0.302468,0 0.907405,-0.25855 0.604937,-0.28439 0.604937,-0.54294 z m 9.404019,-0.31025 q 0.219978,0.33611 0.934903,0.33611 0,-1.00832 -0.247474,-1.00832 z m -9.156545,-1.13759 q -0.137486,0.10342 -0.76992,0.41367 -0.604937,0.31025 -0.714925,0.51708 h 1.319862 q 0.164983,0 0.164983,-0.93075 z m -0.934902,-0.33611 q -0.852412,0 -0.852412,0.85319 0.522446,0 1.429851,-0.67221 0,-0.18098 -0.412457,-0.18098 -0.055,0 -0.109988,0.0259 h -0.02749 z m 10.283928,0.54295 v 0.0259 q 0,0.0517 -0.08249,0.15513 -0.055,0.0776 -0.109989,0.0776 0.02749,0 0.055,0.0259 0.02749,0 0.055,0 0.055,0 0.247474,-0.15513 l 0.19248,-0.15513 q 0.302469,0 0.302469,-0.18097 0,-0.15513 -0.137486,-0.38781 -0.109988,-0.25854 -0.274971,-0.25854 -0.439954,0 -0.439954,0.31024 0,0.12928 0.08249,0.31025 0.109989,0.15513 0.109989,0.2327 z m -8.936569,-1.34443 q -0.164983,0 -0.412457,0.18098 -0.247474,0.18098 -0.247474,0.33611 0.549943,0 0.742422,-0.49123 -0.055,-0.0259 -0.08249,-0.0259 z m 8.579106,0.0259 v 0.36196 q 0.137485,0 0.247473,-0.10341 0.137487,-0.12927 0.137487,-0.25855 z m -9.733985,-0.80147 q -0.494949,0 -0.494949,0.98245 1.237371,0 1.567337,-0.67221 -0.439954,-0.31024 -1.072388,-0.31024 z m 9.376522,0.23268 q 0,0.3361 0.742423,0.3361 0,-0.56878 -0.357463,-0.56878 -0.38496,0 -0.38496,0.23268 z m -9.129048,-0.64635 q 0,0.31024 0.467451,0.31024 0.714925,0 0.714925,-0.0517 l 0.164983,-0.64636 q -0.659931,-0.15513 -0.76992,-0.15513 -0.08249,0 -0.329965,0.20684 -0.219977,0.20683 -0.247474,0.33611 z m 8.799082,0.0776 v 0.23268 q 0.467451,0 0.522445,-0.23268 z m -0.522445,-0.62051 q 0,0.38782 0.357463,0.49123 0.522445,-0.31025 0.522445,-0.3361 -0.055,-0.0517 -0.219977,-0.18098 -0.137486,-0.12928 -0.247474,-0.23269 -0.109989,-0.10342 -0.137486,-0.10342 -0.274971,0 -0.274971,0.36196 z m -6.929278,-0.80148 q 0.055,0.0776 0.055,0.15513 0,0.10341 -0.247475,0.25854 -0.219977,0.12927 -0.219977,0.2844 h 0.38496 q 0.879909,0 0.879909,-0.2327 l -0.494949,-0.31024 q 0,-0.15513 0.164983,-0.15513 0.164983,0 0.494948,0.10342 0.329966,0.0776 0.38496,0.0776 0.329966,0 0.824914,-0.49123 0.494949,-0.49124 0.824914,-0.49124 -0.055,0.0259 -0.412457,0.0259 -0.494948,0 -0.604937,-0.18098 -0.38496,0 -1.072388,0.43953 -0.659931,0.43952 -0.9624,0.51708 z m 6.04937,0.15513 q 0,0.36196 0.742422,0.36196 v -0.36196 z m -2.30976,-0.46538 q 0.109989,0 0.879908,0.15512 0.797417,0.15513 1.15488,0.15513 0.274972,0 0.522445,-0.15513 -0.27497,-0.3361 -0.852411,-0.56879 -0.549942,-0.23269 -0.962399,-0.23269 -0.08249,0 -0.38496,0.25854 -0.274971,0.25855 -0.357463,0.38782 z"
       style="font-style:normal;font-variant:normal;font-weight:normal;font-stretch:normal;font-size:26.66306686px;line-height:125%;font-family:CabinSketch;-inkscape-font-specification:'CabinSketch, Normal';font-variant-ligatures:normal;font-variant-caps:normal;font-variant-numeric:normal;font-feature-settings:normal;text-align:start;letter-spacing:0px;word-spacing:0px;writing-mode:lr-tb;text-anchor:start;fill:#4d4d4d;fill-opacity:1;stroke:none;stroke-width:2.13303781px;stroke-linecap:butt;stroke-linejoin:miter;stroke-opacity:1"
       id="path3908" />
    <path
       d="m 76.121855,112.39094 h -2.852662 l -3.408775,5.90099 q -2.40983,4.19146 -5.715621,4.19146 -2.028788,0 -3.408776,-1.46238 -1.369689,-1.45208 -1.369689,-3.60445 0,-1.75073 1.060737,-3.36758 1.060736,-1.62715 2.893854,-2.69818 1.36969,-0.78268 3.038033,-1.10193 1.668344,-0.31925 4.438617,-0.31925 h 0.762083 l 0.813575,-1.49327 q 1.699239,-3.12042 4.150262,-4.16056 1.575657,-0.6694 4.119366,-0.6694 0.6488,0 1.019543,0.28835 0.370743,0.28836 0.370743,0.80328 0,0.23686 -0.123581,0.55612 l -0.09269,0.23686 -1.771328,4.43862 h 0.78268 0.267758 q 1.153423,0 1.153423,0.99894 0,0.60761 -0.473727,1.04014 -0.473727,0.42224 -1.153423,0.42224 H 80.3442 79.0466 l -1.143125,2.81147 h 1.678642 0.267759 q 1.153423,0 1.153423,0.98864 0,0.61791 -0.473727,1.05044 -0.473728,0.42224 -1.153423,0.42224 h -0.278057 -2.203861 q -0.885664,0 -1.452077,-0.45313 -0.556114,-0.46343 -0.556114,-1.19462 0,-0.56641 0.422235,-1.60655 z m 1.009244,-2.46132 1.482972,-3.65594 q -1.091632,0.0721 -1.843416,0.70029 -0.741486,0.61791 -1.699239,2.25535 l -0.422235,0.7003 z m -6.982326,2.46132 h -0.875365 q -2.945347,0 -4.675481,1.09163 -1.101931,0.70029 -1.761029,1.75073 -0.6488,1.05044 -0.6488,2.12147 0,0.97835 0.628203,1.66835 0.628203,0.70029 1.524166,0.70029 1.55506,0 2.749677,-2.05968 z"
       style="font-style:italic;font-variant:normal;font-weight:normal;font-stretch:semi-expanded;font-size:21.09115601px;line-height:125%;font-family:'Harlow Solid Italic';-inkscape-font-specification:'Harlow Solid Italic, Italic Semi-Expanded';font-variant-ligatures:normal;font-variant-caps:normal;font-variant-numeric:normal;font-feature-settings:normal;text-align:start;letter-spacing:0px;word-spacing:0px;writing-mode:lr-tb;text-anchor:start;fill:#005193;fill-opacity:1;stroke:none;stroke-width:1.68731904px;stroke-linecap:butt;stroke-linejoin:miter;stroke-opacity:1"
       id="path3911" />
    <path
       d="m 88.582938,117.95208 h 1.23581 q 1.307899,0 1.307899,0.90626 0,0.62821 -0.463429,0.97835 -0.463429,0.36045 -1.277003,0.36045 h -1.709538 l -0.432533,1.06073 q -1.575658,3.86191 -4.603392,3.86191 -1.585956,0 -2.636394,-0.97835 -1.060737,-0.97835 -1.060737,-2.45102 0,-0.95776 0.51492,-1.80223 0.504623,-0.83417 1.390287,-1.32849 1.091632,-0.60761 2.935048,-0.60761 h 2.21416 l 0.319251,-0.80327 q -0.648801,0.39134 -1.225512,0.39134 -1.10193,0 -1.791924,-0.76209 -0.679696,-0.76208 -0.679696,-1.98759 0,-1.9773 1.390286,-3.56325 1.390287,-1.58596 3.12042,-1.58596 1.266706,0 1.894909,0.82387 0.484026,-0.82387 1.369689,-0.82387 0.432534,0 0.731188,0.28836 0.308952,0.27805 0.308952,0.67969 0,0.31925 -0.267758,0.97835 z m -1.338794,-3.08952 0.834172,-2.03909 q 0.102984,-0.25746 0.102984,-0.42223 0,-0.30896 -0.278057,-0.51492 -0.267759,-0.20597 -0.679696,-0.20597 -0.741486,0 -1.421181,0.85477 -0.669397,0.84447 -0.669397,1.79192 0,1.08133 1.009244,1.08133 0.875366,0 1.101931,-0.54581 z m -2.162667,5.33458 h -1.781626 q -0.926858,0 -1.441779,0.39134 -0.504622,0.39134 -0.504622,1.10193 0,0.48402 0.350146,0.82387 0.350146,0.33985 0.865067,0.33985 0.741486,0 1.297601,-0.58701 0.556114,-0.58701 1.215213,-2.06998 z"
       style="font-style:italic;font-variant:normal;font-weight:normal;font-stretch:semi-expanded;font-size:21.09115601px;line-height:125%;font-family:'Harlow Solid Italic';-inkscape-font-specification:'Harlow Solid Italic, Italic Semi-Expanded';font-variant-ligatures:normal;font-variant-caps:normal;font-variant-numeric:normal;font-feature-settings:normal;text-align:start;letter-spacing:0px;word-spacing:0px;writing-mode:lr-tb;text-anchor:start;fill:#005193;fill-opacity:1;stroke:none;stroke-width:1.68731904px;stroke-linecap:butt;stroke-linejoin:miter;stroke-opacity:1"
       id="path3913" />
    <path
       d="m 94.174977,114.64629 q 0,0.77238 1.163721,0.77238 h 3.058629 q 1.297601,0 1.297601,0.91656 0,0.6282 -0.463429,0.97835 -0.45313,0.35015 -1.277004,0.35015 h -2.914451 q -1.62715,0 -2.481919,-0.80328 -0.84447,-0.80328 -0.84447,-2.34804 0,-1.98759 1.338794,-3.42937 1.349093,-1.44178 3.202808,-1.44178 1.349092,0 2.162667,0.71059 0.823873,0.70029 0.823873,1.85372 0,1.39028 -1.132825,2.05968 -0.628204,0.38104 -1.874312,0.38104 z m 0.494324,-1.87431 h 1.132825 q 1.101931,0 1.071036,-0.48403 -0.0309,-0.54581 -0.710591,-0.54581 -0.947454,0 -1.49327,1.02984 z"
       style="font-style:italic;font-variant:normal;font-weight:normal;font-stretch:semi-expanded;font-size:21.09115601px;line-height:125%;font-family:'Harlow Solid Italic';-inkscape-font-specification:'Harlow Solid Italic, Italic Semi-Expanded';font-variant-ligatures:normal;font-variant-caps:normal;font-variant-numeric:normal;font-feature-settings:normal;text-align:start;letter-spacing:0px;word-spacing:0px;writing-mode:lr-tb;text-anchor:start;fill:#005193;fill-opacity:1;stroke:none;stroke-width:1.68731904px;stroke-linecap:butt;stroke-linejoin:miter;stroke-opacity:1"
       id="path3915" />
    <path
       d="m 107.73799,115.41867 h 1.23581 q 1.3079,0 1.3079,0.91656 0,0.6282 -0.46343,0.97835 -0.46343,0.35015 -1.277,0.35015 h -2.15237 q -0.62821,0 -1.06074,-0.38104 -0.42223,-0.38105 -0.42223,-0.95776 0,-0.35014 0.28835,-1.05044 l 0.90626,-2.24505 q 0.14418,-0.35015 0.15448,-0.56641 0.0103,-0.24717 -0.20597,-0.42224 -0.20597,-0.17507 -0.53552,-0.17507 -1.06073,0 -1.70953,1.59625 l -1.21522,2.98654 q -0.54581,1.35939 -1.62715,1.35939 -0.44283,0 -0.75178,-0.26775 -0.308954,-0.26776 -0.308954,-0.6591 0,-0.28836 0.164774,-0.69 l 0.11328,-0.27805 2.08028,-5.12862 q 0.40164,-0.99894 1.36969,-0.99894 0.79298,0 1.13283,0.70029 1.10193,-0.84447 2.10088,-0.84447 0.96805,0 1.59625,0.55612 0.6282,0.55611 0.6282,1.41088 0,0.47373 -0.22656,1.04014 z"
       style="font-style:italic;font-variant:normal;font-weight:normal;font-stretch:semi-expanded;font-size:21.09115601px;line-height:125%;font-family:'Harlow Solid Italic';-inkscape-font-specification:'Harlow Solid Italic, Italic Semi-Expanded';font-variant-ligatures:normal;font-variant-caps:normal;font-variant-numeric:normal;font-feature-settings:normal;text-align:start;letter-spacing:0px;word-spacing:0px;writing-mode:lr-tb;text-anchor:start;fill:#005193;fill-opacity:1;stroke:none;stroke-width:1.68731904px;stroke-linecap:butt;stroke-linejoin:miter;stroke-opacity:1"
       id="path3917" />
    <path
       d="m 117.72745,115.41867 h 1.17402 q 1.3079,0 1.3079,0.91656 0,0.6282 -0.46343,0.97835 -0.46343,0.35015 -1.277,0.35015 h -1.39029 q -0.80327,0 -1.17402,-0.6591 -0.65909,0.6591 -1.41088,0.6591 h -1.3079 q -1.14312,0 -1.83312,-0.78268 -0.67969,-0.78268 -0.67969,-2.08028 0,-1.9876 1.34909,-3.57355 1.35939,-1.58596 3.04833,-1.58596 1.24611,0 1.9876,0.89596 l 2.29654,-5.63323 q 0.58701,-1.44178 1.63745,-1.44178 0.44283,0 0.75179,0.28836 0.30895,0.27805 0.30895,0.68999 0,0.31925 -0.15448,0.72089 l -0.12358,0.27806 z m -3.76922,0.0515 h 0.39134 q 0.71059,0 0.93716,-0.56641 l 0.77238,-1.90521 q 0.14418,-0.35014 0.14418,-0.53551 0,-0.30896 -0.26776,-0.52522 -0.25746,-0.21627 -0.6488,-0.21627 -0.80328,0 -1.50357,0.89596 -0.68999,0.89597 -0.68999,1.93611 0,0.91655 0.86506,0.91655 z"
       style="font-style:italic;font-variant:normal;font-weight:normal;font-stretch:semi-expanded;font-size:21.09115601px;line-height:125%;font-family:'Harlow Solid Italic';-inkscape-font-specification:'Harlow Solid Italic, Italic Semi-Expanded';font-variant-ligatures:normal;font-variant-caps:normal;font-variant-numeric:normal;font-feature-settings:normal;text-align:start;letter-spacing:0px;word-spacing:0px;writing-mode:lr-tb;text-anchor:start;fill:#005193;fill-opacity:1;stroke:none;stroke-width:1.68731904px;stroke-linecap:butt;stroke-linejoin:miter;stroke-opacity:1"
       id="path3919" />
    <path
       d="m 127.65513,115.41867 h 1.13282 q 1.2976,0 1.2976,0.90626 0,0.62821 -0.46342,0.98865 -0.46343,0.35015 -1.27701,0.35015 h -1.31819 q -0.88567,0 -1.20492,-0.69 -0.77238,0.69 -1.49327,0.69 h -1.17402 q -1.13283,0 -1.83312,-0.80328 -0.68999,-0.81357 -0.68999,-2.12147 0,-1.9773 1.35939,-3.53236 1.36969,-1.56536 3.08952,-1.56536 1.3182,0 1.92581,0.91656 0.51492,-0.77238 1.34909,-0.77238 0.45313,0 0.75179,0.28835 0.30895,0.28836 0.30895,0.71059 0,0.28836 -0.16478,0.69 l -0.11328,0.27806 z m -3.73833,0.0515 h 0.25746 q 0.84447,0 1.12253,-0.68999 l 0.72089,-1.78163 q 0.14418,-0.35014 0.14418,-0.58701 0,-0.27805 -0.27806,-0.48402 -0.26776,-0.20597 -0.6488,-0.20597 -0.75178,0 -1.46237,0.87537 -0.7106,0.87536 -0.7106,1.81252 0,1.06073 0.85477,1.06073 z"
       style="font-style:italic;font-variant:normal;font-weight:normal;font-stretch:semi-expanded;font-size:21.09115601px;line-height:125%;font-family:'Harlow Solid Italic';-inkscape-font-specification:'Harlow Solid Italic, Italic Semi-Expanded';font-variant-ligatures:normal;font-variant-caps:normal;font-variant-numeric:normal;font-feature-settings:normal;text-align:start;letter-spacing:0px;word-spacing:0px;writing-mode:lr-tb;text-anchor:start;fill:#005193;fill-opacity:1;stroke:none;stroke-width:1.68731904px;stroke-linecap:butt;stroke-linejoin:miter;stroke-opacity:1"
       id="path3921" />
  </g>
</svg>
