<?xml version="1.0" encoding="utf-8"?>
<!-- Generator: Adobe Illustrator 16.0.0, SVG Export Plug-In . SVG Version: 6.00 Build 0)  -->
<!DOCTYPE svg PUBLIC "-//W3C//DTD SVG 1.1//EN" "http://www.w3.org/Graphics/SVG/1.1/DTD/svg11.dtd">
<svg version="1.1" xmlns="http://www.w3.org/2000/svg" xmlns:xlink="http://www.w3.org/1999/xlink" x="0px" y="0px"
	 width="595.28px" height="841.89px" viewBox="0 0 595.28 841.89" enable-background="new 0 0 595.28 841.89" xml:space="preserve">
<g id="Capa_1">
	<g>
		<path fill-rule="evenodd" clip-rule="evenodd" fill="#7C4B98" stroke="#676767" stroke-width="20" stroke-miterlimit="10" d="
			M297.402,116.986c-36.231-2.408-71.407,7.246-104.259,23.76C121.37,176.824,83.913,233.504,82.6,304.675
			c-1.16,62.905,31.616,115.003,89.356,153.188c7.829,5.176,12.994,11.144,16.51,18.674c18.106,38.763,36.172,77.541,54.124,116.359
			c14.27,30.856,28.239,61.823,42.65,92.627c2.206,4.718,3.621,11.429,10.916,11.755c8.665,0.389,9.734-7.246,12.337-12.257
			c5.325-10.246,9.666-20.886,14.499-31.331c27.622-59.702,55.245-119.4,82.95-179.07c3.293-7.091,8.951-12.153,16.012-17.018
			c69.069-47.578,100.464-109.96,85.457-186.682C490.191,182.887,395.96,114.377,297.402,116.986z"/>
		<path fill-rule="evenodd" clip-rule="evenodd" fill="#78BC6E" stroke="#676767" stroke-width="20" stroke-miterlimit="10" d="
			M297.402,116.986c98.558-2.609,192.789,65.9,210.008,153.933c15.007,76.722-16.388,139.104-85.457,186.682
			c-7.061,4.864-12.719,9.927-16.012,17.018c-27.705,59.67-55.328,119.368-82.95,179.07c-4.833,10.445-9.174,21.085-14.499,31.331
			c-2.603,5.011-3.672,12.646-12.337,12.257c-7.295-0.326-8.71-7.037-10.916-11.755c-14.411-30.804-28.38-61.771-42.65-92.627
			c-17.952-38.818-36.018-77.597-54.124-116.359c-3.516-7.53-8.681-13.498-16.51-18.674C114.215,419.678,81.44,367.58,82.6,304.675
			c1.313-71.17,38.771-127.851,110.544-163.929C225.995,124.232,261.171,114.579,297.402,116.986z"/>
	</g>
	<rect fill-rule="evenodd" clip-rule="evenodd" fill="none" width="595.28" height="841.89"/>
</g>
<g id="Capa_4" display="none">
	<g display="inline">
		<path fill-rule="evenodd" clip-rule="evenodd" fill="#1D1D1D" d="M188.981,233.433c12.386,18.302,23.756,36.783,32.195,56.989
			c0.363-0.185,0.727-0.369,1.091-0.552c2.672-6.844,5.022-13.837,8.082-20.504c6.277-13.674,46.854-87.936,49.511-92.328
			c1.705-2.817,4.173-1.126,5.972-0.82c17.326,2.956,34.611,6.148,51.893,9.357c14.124,2.623,28.208,5.474,42.347,8.02
			c15.895,2.863,31.832,5.485,47.748,8.234c5.011,0.866,10.089,1.508,14.971,2.857c1.854,0.512,3.792,2.473,4.606,4.266
			c0.406,0.897-1.391,3.148-2.621,4.344c-1.534,1.49-2.522,2.824-2.46,5.156c0.186,6.771,0.063,13.551,0.068,20.326
			c0.001,1.792-0.678,4.269,0.225,5.196c1.068,1.098,3.513,0.851,5.357,1.197c4.775,0.896,9.606,1.578,14.29,2.817
			c1.681,0.444,3.862,2.018,4.238,3.482c0.34,1.318-1.231,3.405-2.409,4.764c-1.485,1.713-2.873,3.073-2.809,5.723
			c0.214,8.804,0.092,17.616,0.07,26.425c-0.004,1.879-0.12,3.362,2.589,3.768c1.321,0.198,2.984,2.21,3.318,3.67
			c0.293,1.272-0.676,3.34-1.755,4.334c-4.586,4.229-9.457,8.148-14.126,12.29c-0.764,0.679-1.454,1.904-1.472,2.888
			c-0.118,7.677-0.042,15.357-0.082,23.037c-0.009,1.772,0.289,2.732,2.423,3.224c1.418,0.328,3.287,2.169,3.456,3.52
			c0.188,1.529-0.885,3.722-2.121,4.836c-5.289,4.765-10.854,9.223-16.293,13.822c-8.932,7.556-17.865,15.107-26.754,22.712
			c-6.867,5.875-13.626,11.879-20.505,17.739c-8.479,7.221-17.057,14.322-25.543,21.531c-6.63,5.634-13.192,11.346-19.772,17.037
			c-2.03,1.754-3.937,3.66-6.056,5.293c-1.755,1.351-3.513,1.802-6.088,1.223c-15.408-3.461-30.919-6.46-46.378-9.698
			c-15.56-3.257-31.089-6.666-46.653-9.904c-14.814-3.084-29.668-5.98-44.483-9.063c-13.08-2.719-26.06-5.991-39.217-8.235
			c-8.309-1.418-11.845-7.313-14.63-13.667c-4.039-9.212-4.582-18.95-1.011-28.594c1.816-4.908,5.004-8.774,9.513-11.521
			c1.414-0.861,2.973-1.655,4.033-2.859c0.627-0.711,0.91-2.419,0.493-3.251c-4.654-9.308-6.092-18.925-3.408-29.083
			c0.544-2.062,0.382-3.534-2.559-3.826c-9.054-0.9-12.625-7.924-15.477-15.136c-3.581-9.06-3.959-18.312-0.142-27.546
			c1.654-3.999,3.928-7.324,7.549-9.829c15.746-10.889,31.424-21.876,47.134-32.817C187.763,233.977,188.274,233.79,188.981,233.433
			z M323.653,403.368c-55.956-11.705-111.745-23.375-167.779-35.095c0,11.854,0,23.21,0,34.684
			c55.906,11.701,111.693,23.375,167.779,35.113C323.653,426.086,323.653,414.834,323.653,403.368z M148.281,275.833
			c0,11.55-0.025,22.358,0.066,33.165c0.005,0.629,0.875,1.677,1.498,1.812c8.851,1.914,17.727,3.711,26.6,5.519
			c11.578,2.359,23.175,4.635,34.739,7.068c15.338,3.228,30.644,6.61,45.979,9.856c15.984,3.383,31.979,6.713,47.984,9.996
			c3.61,0.74,7.278,1.185,11.209,1.813c0-11.233,0.047-21.722-0.086-32.208c-0.01-0.872-1.102-2.323-1.911-2.503
			c-7.868-1.754-15.789-3.271-23.685-4.897c-14.707-3.029-29.413-6.06-44.109-9.14c-12.209-2.559-24.396-5.226-36.606-7.778
			c-15.779-3.298-31.571-6.534-47.358-9.789C157.989,277.794,153.372,276.868,148.281,275.833z M168.112,323.767
			c0,9.914,0,19.684,0,29.89c55.807,11.667,111.683,23.349,167.396,34.997c0-12.229,0-23.559,0-35.87
			c-1.844,1.028-2.855,1.778-3.991,2.184c-2.11,0.753-4.426,2.123-6.422,1.797c-7.286-1.194-14.47-3.001-21.7-4.541
			c-13.817-2.941-27.639-5.855-41.457-8.781c-10.69-2.264-21.374-4.559-32.072-6.786c-13.938-2.901-27.891-5.734-41.83-8.63
			C181.458,326.66,174.894,325.219,168.112,323.767z M452.568,267.526c-1.633,0.864-2.764,1.229-3.601,1.941
			c-6.711,5.713-13.328,11.533-20.047,17.238c-8.403,7.135-16.909,14.147-25.303,21.295c-6.965,5.934-13.797,12.024-20.745,17.979
			c-8.97,7.686-17.959,15.345-27.008,22.937c-3.438,2.884-7.063,5.547-10.797,8.462c0,10.521,0,21.611,0,32.962
			c0.825-0.26,1.444-0.283,1.813-0.599c3.729-3.198,7.406-6.456,11.117-9.676c5.14-4.462,10.265-8.943,15.453-13.348
			c6.874-5.835,13.835-11.572,20.703-17.414c5.358-4.554,10.595-9.249,15.958-13.798c6.668-5.659,13.425-11.217,20.12-16.846
			c5.883-4.946,11.855-9.797,17.532-14.973c1.839-1.677,4.818-2.685,4.813-5.981C452.556,288.003,452.568,278.298,452.568,267.526z
			 M432.917,225.122c-0.278-0.218-0.556-0.436-0.832-0.653c-2.018,1.615-4.092,3.164-6.041,4.856
			c-5.648,4.901-11.187,9.931-16.88,14.777c-8.22,6.995-16.583,13.816-24.8,20.813c-7.133,6.076-14.102,12.344-21.22,18.438
			c-8.708,7.457-17.328,15.038-26.336,22.122c-3.62,2.846-5.994,7.737-11.437,7.659c0,11.343,0,22.441,0,34.675
			c3.558-2.847,6.491-5.082,9.297-7.469c5.266-4.48,10.428-9.086,15.69-13.572c7.113-6.066,14.295-12.051,21.421-18.104
			c6.455-5.483,12.853-11.034,19.315-16.512c6.923-5.872,13.89-11.692,20.84-17.534c5.622-4.727,11.296-9.394,16.833-14.216
			c1.585-1.379,3.902-3.167,3.964-4.837C433.101,245.43,432.917,235.272,432.917,225.122z M441.041,321.934
			c-1.258,0.675-2.064,0.95-2.676,1.46c-3.165,2.643-6.269,5.362-9.417,8.025c-8.674,7.338-17.39,14.626-26.029,22.004
			c-6.958,5.943-13.802,12.019-20.742,17.983c-9.215,7.918-18.394,15.882-27.759,23.62c-3.063,2.532-5.754,6.417-10.872,4.741
			c-0.68-0.222-1.872,0.901-2.739,1.525c-2.391,1.721-4.734,3.505-7.301,5.417c0,10.591,0,21.698,0,33.815
			c3.096-2.599,5.62-4.659,8.079-6.789c5.4-4.677,10.724-9.446,16.167-14.076c6.783-5.768,13.691-11.391,20.477-17.158
			c5.442-4.626,10.731-9.435,16.179-14.058c8.233-6.986,16.548-13.879,24.818-20.822c5.715-4.797,11.455-9.568,17.099-14.447
			c1.715-1.482,4.408-3.218,4.504-4.955C441.298,339.7,441.041,331.143,441.041,321.934z"/>
		<path fill-rule="evenodd" clip-rule="evenodd" fill="#C3C3C3" d="M323.653,403.368c0,11.466,0,22.718,0,34.701
			c-56.086-11.738-111.873-23.412-167.779-35.113c0-11.473,0-22.83,0-34.684C211.908,379.994,267.697,391.664,323.653,403.368z"/>
		<path fill-rule="evenodd" clip-rule="evenodd" fill="#C3C3C3" d="M148.281,275.833c5.091,1.035,9.708,1.961,14.321,2.913
			c15.788,3.255,31.58,6.491,47.358,9.789c12.21,2.552,24.397,5.219,36.606,7.778c14.696,3.081,29.402,6.111,44.109,9.14
			c7.896,1.626,15.816,3.144,23.685,4.897c0.81,0.181,1.901,1.631,1.911,2.503c0.133,10.486,0.086,20.975,0.086,32.208
			c-3.931-0.628-7.599-1.073-11.209-1.813c-16.005-3.283-32-6.613-47.984-9.996c-15.335-3.246-30.641-6.628-45.979-9.856
			c-11.563-2.433-23.161-4.709-34.739-7.068c-8.874-1.808-17.75-3.605-26.6-5.519c-0.623-0.135-1.493-1.183-1.498-1.812
			C148.255,298.191,148.281,287.383,148.281,275.833z"/>
		<path fill-rule="evenodd" clip-rule="evenodd" fill="#C3C3C3" d="M168.112,323.767c6.782,1.452,13.346,2.893,19.924,4.259
			c13.939,2.896,27.891,5.729,41.83,8.63c10.698,2.228,21.382,4.522,32.072,6.786c13.818,2.926,27.64,5.84,41.457,8.781
			c7.23,1.54,14.414,3.347,21.7,4.541c1.996,0.326,4.312-1.043,6.422-1.797c1.136-0.406,2.147-1.156,3.991-2.184
			c0,12.312,0,23.641,0,35.87c-55.713-11.647-111.589-23.33-167.396-34.997C168.112,343.451,168.112,333.681,168.112,323.767z"/>
		<path fill-rule="evenodd" clip-rule="evenodd" fill="#C3C3C3" d="M452.568,267.526c0,10.772-0.013,20.477,0.009,30.18
			c0.006,3.296-2.974,4.304-4.813,5.981c-5.677,5.176-11.649,10.027-17.532,14.973c-6.695,5.628-13.452,11.187-20.12,16.846
			c-5.363,4.549-10.6,9.244-15.958,13.798c-6.868,5.841-13.829,11.578-20.703,17.414c-5.188,4.404-10.313,8.886-15.453,13.348
			c-3.711,3.22-7.388,6.478-11.117,9.676c-0.368,0.316-0.987,0.339-1.813,0.599c0-11.351,0-22.441,0-32.962
			c3.734-2.915,7.358-5.578,10.797-8.462c9.049-7.592,18.038-15.251,27.008-22.937c6.948-5.955,13.78-12.045,20.745-17.979
			c8.394-7.148,16.899-14.161,25.303-21.295c6.719-5.705,13.336-11.525,20.047-17.238
			C449.805,268.756,450.936,268.39,452.568,267.526z"/>
		<path fill-rule="evenodd" clip-rule="evenodd" fill="#C3C3C3" d="M432.917,225.122c0,10.15,0.184,20.308-0.185,30.445
			c-0.062,1.67-2.379,3.458-3.964,4.837c-5.537,4.822-11.211,9.489-16.833,14.216c-6.95,5.841-13.917,11.662-20.84,17.534
			c-6.463,5.478-12.86,11.028-19.315,16.512c-7.126,6.052-14.308,12.038-21.421,18.104c-5.263,4.486-10.425,9.092-15.69,13.572
			c-2.806,2.387-5.739,4.622-9.297,7.469c0-12.234,0-23.332,0-34.675c5.442,0.078,7.816-4.813,11.437-7.659
			c9.008-7.084,17.628-14.665,26.336-22.122c7.118-6.094,14.087-12.362,21.22-18.438c8.217-6.998,16.58-13.819,24.8-20.813
			c5.693-4.846,11.231-9.875,16.88-14.777c1.949-1.692,4.023-3.241,6.041-4.856C432.361,224.687,432.639,224.904,432.917,225.122z"
			/>
		<path fill-rule="evenodd" clip-rule="evenodd" fill="#C3C3C3" d="M441.041,321.934c0,9.208,0.257,17.766-0.213,26.286
			c-0.096,1.737-2.789,3.472-4.504,4.955c-5.644,4.879-11.384,9.65-17.099,14.447c-8.271,6.943-16.585,13.836-24.818,20.822
			c-5.447,4.623-10.736,9.431-16.179,14.058c-6.785,5.767-13.693,11.39-20.477,17.158c-5.443,4.63-10.767,9.399-16.167,14.076
			c-2.459,2.13-4.983,4.19-8.079,6.789c0-12.117,0-23.224,0-33.815c2.566-1.912,4.91-3.696,7.301-5.417
			c0.867-0.624,2.06-1.748,2.739-1.525c5.118,1.676,7.809-2.209,10.872-4.741c9.365-7.737,18.544-15.702,27.759-23.62
			c6.94-5.964,13.784-12.04,20.742-17.983c8.64-7.378,17.355-14.666,26.029-22.004c3.148-2.664,6.252-5.382,9.417-8.025
			C438.977,322.884,439.783,322.609,441.041,321.934z"/>
	</g>
	<polyline display="inline" fill-rule="evenodd" clip-rule="evenodd" fill="#1D1D1D" points="182.763,237.461 279.859,177.038 
		290.591,177.038 254.094,297.885 161.585,275.833 	"/>
	
		<rect x="119.333" y="471.664" display="inline" fill-rule="evenodd" clip-rule="evenodd" fill="#1D1D1D" width="25.333" height="23.334"/>
</g>
<g id="Capa_3">
	<g>
		<path fill-rule="evenodd" clip-rule="evenodd" fill="#E2E2E2" stroke="#1D1D1D" stroke-width="5" stroke-miterlimit="10" d="
			M404.667,459.332c-14.276,13.403-11.643,34.481-25.334,47.333c-7.146-5.211-32.05-18.674-39.296-23.328
			c-37.565-24.155-75.268-48.103-112.924-72.125c-5.769-3.682-11.641-7.208-17.28-11.079c-5.117-3.516-8.58-8.085-9.399-14.662
			c-5.41-43.348-10.922-86.682-16.61-129.995c-0.881-6.707-1.352-12.954,2.893-18.848c6.463-8.977,19.623-10.744,28.204-3.665
			c4.886,4.028,7.42,8.998,8.472,15.333c4.918,29.684,10.084,59.33,15.545,88.919c0.532,2.882,3.119,6.134,5.675,7.776
			c21.133,13.579,42.462,26.85,63.779,40.138c6.084,3.794,16.039,1.819,20.665-3.872c6.02-7.398,6.121-17.099-0.021-23.763
			c-9.025-9.797-18.299-19.375-27.293-29.198c-6.19-6.767-4.687-15.806,3.032-19.778c4.516-2.324,10.434-1.588,14.327,2.509
			c17.002,17.895,34.203,35.62,50.607,54.044c10.382,11.661,13.972,26.497,15.897,41.727c1.156,9.162,2.375,18.336,4.119,27.395
			C391.547,443.669,397.654,451.96,404.667,459.332z"/>
		<path fill-rule="evenodd" clip-rule="evenodd" fill="#E2E2E2" stroke="#1D1D1D" stroke-width="5" stroke-miterlimit="10" d="
			M267.585,325.195c-7.025-4.08-7.022-4.076-2.837-9.539c7.818-10.205,15.629-20.414,23.598-30.827
			c-2.515-2.771-4.998-5.352-7.305-8.081c-16.774-19.853-18.064-51.289-3.167-72.459c1.736-2.468,2.988-2.543,5.146-0.725
			c14.015,11.816,21.642,26.738,22.52,45.14c0.452,9.489-1.588,18.442-4.926,27.399c11.237-8.728,23.87-13.358,37.979-13.679
			c14.082-0.322,26.666,3.986,38.155,12.554c-6.267,8.406-13.827,14.615-23.011,18.645c-19.033,8.357-37.79,7.552-55.981-2.613
			c-2.631-1.471-4.047-1.318-5.893,1.179c-7.32,9.897-14.881,19.614-22.308,29.432C268.771,322.661,268.275,323.925,267.585,325.195
			z"/>
		<path fill-rule="evenodd" clip-rule="evenodd" fill="#E2E2E2" stroke="#1D1D1D" stroke-width="5" stroke-miterlimit="10" d="
			M372.195,164.047c14.229,40.761-10.901,84.072-47.854,94.652C310.031,221.133,332.984,175.257,372.195,164.047z"/>
	</g>
</g>
</svg>
