<?xml version="1.0" encoding="utf-8"?>
<!-- Generator: Adobe Illustrator 16.0.0, SVG Export Plug-In . SVG Version: 6.00 Build 0)  -->
<!DOCTYPE svg PUBLIC "-//W3C//DTD SVG 1.1//EN" "http://www.w3.org/Graphics/SVG/1.1/DTD/svg11.dtd">
<svg version="1.1" xmlns="http://www.w3.org/2000/svg" xmlns:xlink="http://www.w3.org/1999/xlink" x="0px" y="0px"
	 width="595.28px" height="841.89px" viewBox="0 0 595.28 841.89" enable-background="new 0 0 595.28 841.89" xml:space="preserve">
<g id="Capa_1">
	<g>
		<path fill-rule="evenodd" clip-rule="evenodd" fill="#6B6A73" stroke="#676767" stroke-width="20" stroke-miterlimit="10" d="
			M297.402,116.986c-36.231-2.408-71.407,7.246-104.259,23.76C121.37,176.824,83.913,233.504,82.6,304.675
			c-1.16,62.905,31.616,115.003,89.356,153.188c7.829,5.176,12.994,11.144,16.51,18.674c18.106,38.763,36.172,77.541,54.124,116.359
			c14.27,30.856,28.239,61.823,42.65,92.627c2.206,4.718,3.621,11.429,10.916,11.755c8.665,0.389,9.734-7.246,12.337-12.257
			c5.325-10.246,9.666-20.886,14.499-31.331c27.622-59.702,55.245-119.4,82.95-179.07c3.293-7.091,8.951-12.153,16.012-17.018
			c69.069-47.578,100.464-109.96,85.457-186.682C490.191,182.887,395.96,114.377,297.402,116.986z"/>
		<path fill-rule="evenodd" clip-rule="evenodd" fill="#6B6A73" stroke="#676767" stroke-width="20" stroke-miterlimit="10" d="
			M297.402,116.986c98.558-2.609,192.789,65.9,210.008,153.933c15.007,76.722-16.388,139.104-85.457,186.682
			c-7.061,4.864-12.719,9.927-16.012,17.018c-27.705,59.67-55.328,119.368-82.95,179.07c-4.833,10.445-9.174,21.085-14.499,31.331
			c-2.603,5.011-3.672,12.646-12.337,12.257c-7.295-0.326-8.71-7.037-10.916-11.755c-14.411-30.804-28.38-61.771-42.65-92.627
			c-17.952-38.818-36.018-77.597-54.124-116.359c-3.516-7.53-8.681-13.498-16.51-18.674C114.215,419.678,81.44,367.58,82.6,304.675
			c1.313-71.17,38.771-127.851,110.544-163.929C225.995,124.232,261.171,114.579,297.402,116.986z"/>
	</g>
	<rect fill-rule="evenodd" clip-rule="evenodd" fill="none" width="595.28" height="841.89"/>
</g>
<g id="Capa_2">
	<g>
		<path fill="#FFFFFF" stroke="#3D3D3D" stroke-linecap="round" stroke-linejoin="round" stroke-miterlimit="10" d="
			M309.911,316.031c-11.663-13.201-11.638-22.146,0.49-35.187c6.971-7.496,14.061-14.955,20.286-23.053
			c15.339-19.953,22.374-42.852,23.098-68.271c-39.792,0-79.02,0-118.285,0c-0.239,1.045-0.54,1.705-0.515,2.349
			c1.125,27.421,10.244,51.785,28.077,72.735c6.333,7.44,13.262,14.395,19.308,22.053c5.982,7.577,5.847,16.17-0.019,23.822
			c-3.951,5.154-8.507,9.865-12.978,14.597c-21.626,22.888-33.652,49.757-34.348,82.316c39.933,0,79.16,0,118.751,0
			c-0.638-21.822-5.523-42.053-17.679-59.683C328.352,336.469,318.982,326.299,309.911,316.031z"/>
		<path fill="#252525" stroke="#3D3D3D" stroke-linecap="round" stroke-linejoin="round" stroke-miterlimit="10" d="
			M400.761,437.084c-4.367-8.359-13.989-3.472-21.284-5.802c-0.419-10.306,2.22-22.366-13.056-23.924
			c-1.001-7.819-1.653-15.214-2.935-22.499c-4.933-28.039-19.197-50.984-38.791-71.132c-14.529-14.938-14.504-15.303-0.041-30.31
			c16.731-17.362,30.284-36.634,36.256-60.28c2.769-10.954,4.055-22.282,6.066-33.751c15.454-1.333,11.537-14.142,12.645-23.667
			l-170.183,0.074c-0.405,10.956-1.674,22.26,11.778,23.879c2.84,13.687,4.741,26.592,8.27,39.035
			c6.525,23.007,20.877,41.263,37.338,58.09c10.348,10.576,10.219,12.101,0.45,22.924c-2.186,2.42-4.497,4.727-6.726,7.108
			c-13.346,14.256-24.591,30.024-30.223,48.829c-4.028,13.448-6.133,27.474-9.245,41.935c-14.287,1.633-11.309,13.902-11.859,22.617
			c-7.446,1.991-14.922,2.28-20.201,5.834c-6.527,4.395-3.604,12.577-3.554,19.545c72.847,0,145.177,0,219.043,0
			C403.272,448.907,403.457,442.243,400.761,437.084z M235.026,407.393c0.695-32.56,12.721-59.429,34.348-82.316
			c4.471-4.732,9.026-9.442,12.978-14.597c5.865-7.652,6-16.245,0.019-23.822c-6.045-7.659-12.975-14.613-19.308-22.053
			c-17.833-20.95-26.952-45.314-28.077-72.735c-0.025-0.645,0.276-1.304,0.515-2.349c39.265,0,78.493,0,118.285,0
			c-0.724,25.419-7.759,48.318-23.098,68.271c-6.226,8.099-13.315,15.558-20.286,23.053c-12.128,13.042-12.153,21.986-0.49,35.187
			c9.071,10.269,18.44,20.438,26.188,31.679c12.155,17.63,17.041,37.861,17.679,59.683
			C314.187,407.393,274.959,407.393,235.026,407.393z"/>
	</g>
	<path fill-rule="evenodd" clip-rule="evenodd" fill="#6B6A73" d="M262.094,245.6h68.996
		C331.09,245.6,295.092,323.596,262.094,245.6z"/>
	<path fill-rule="evenodd" clip-rule="evenodd" fill="#6B6A73" d="M264.001,407.956h68.997
		C332.998,407.956,297,329.96,264.001,407.956z"/>
</g>
</svg>
